<svg width="20" height="20" viewBox="0 0 20 20" fill="none" xmlns="http://www.w3.org/2000/svg">
<path d="M16.2984 2.8H12.5364C12.1584 1.756 11.1684 1 9.99844 1C8.82844 1 7.83844 1.756 7.46044 2.8H3.69844C3.57244 2.8 3.45544 2.809 3.33844 2.836C2.98744 2.908 2.67244 3.088 2.42944 3.331C2.26744 3.493 2.13244 3.691 2.04244 3.907C1.95244 4.114 1.89844 4.348 1.89844 4.6V17.2C1.89844 17.443 1.95244 17.686 2.04244 17.902C2.13244 18.118 2.26744 18.307 2.42944 18.478C2.67244 18.721 2.98744 18.901 3.33844 18.973C3.45544 18.991 3.57244 19 3.69844 19H16.2984C17.2884 19 18.0984 18.19 18.0984 17.2V4.6C18.0984 3.61 17.2884 2.8 16.2984 2.8ZM9.99844 2.575C10.3674 2.575 10.6734 2.881 10.6734 3.25C10.6734 3.619 10.3674 3.925 9.99844 3.925C9.62944 3.925 9.32344 3.619 9.32344 3.25C9.32344 2.881 9.62944 2.575 9.99844 2.575ZM16.2984 17.2H3.69844V4.6H16.2984V17.2Z" fill="#484848"/>
<path d="M10.0482 7.60156C11.1536 7.60156 11.9603 7.83984 12.4681 8.31641C12.9759 8.78906 13.2298 9.44141 13.2298 10.2734C13.2298 10.6484 13.1732 11.0078 13.0599 11.3516C12.9466 11.6914 12.7611 11.9941 12.5033 12.2598C12.2493 12.5254 11.9095 12.7363 11.4837 12.8926C11.0579 13.0449 10.5326 13.1211 9.90755 13.1211H9.12826V16.168H7.31185V7.60156H10.0482ZM9.95443 9.08984H9.12826V11.6328H9.72591C10.0658 11.6328 10.3607 11.5879 10.6107 11.498C10.8607 11.4082 11.054 11.2676 11.1908 11.0762C11.3275 10.8848 11.3958 10.6387 11.3958 10.3379C11.3958 9.91602 11.2786 9.60352 11.0443 9.40039C10.8099 9.19336 10.4466 9.08984 9.95443 9.08984Z" fill="#484848"/>
</svg>
