<svg width="120" height="134" viewBox="0 0 120 134" fill="none" xmlns="http://www.w3.org/2000/svg">
<path d="M13.3333 133.665C9.66667 133.665 6.52778 132.36 3.91667 129.749C1.30556 127.138 0 123.999 0 120.332V26.9987C0 23.332 1.30556 20.1931 3.91667 17.582C6.52778 14.9709 9.66667 13.6654 13.3333 13.6654H20V0.332031H33.3333V13.6654H86.6667V0.332031H100V13.6654H106.667C110.333 13.6654 113.472 14.9709 116.083 17.582C118.694 20.1931 120 23.332 120 26.9987V120.332C120 123.999 118.694 127.138 116.083 129.749C113.472 132.36 110.333 133.665 106.667 133.665H13.3333ZM13.3333 120.332H106.667V53.6654H13.3333V120.332ZM13.3333 40.332H106.667V26.9987H13.3333V40.332ZM60 80.332C58.1111 80.332 56.5278 79.6931 55.25 78.4154C53.9722 77.1376 53.3333 75.5543 53.3333 73.6654C53.3333 71.7765 53.9722 70.1931 55.25 68.9154C56.5278 67.6376 58.1111 66.9987 60 66.9987C61.8889 66.9987 63.4722 67.6376 64.75 68.9154C66.0278 70.1931 66.6667 71.7765 66.6667 73.6654C66.6667 75.5543 66.0278 77.1376 64.75 78.4154C63.4722 79.6931 61.8889 80.332 60 80.332ZM33.3333 80.332C31.4444 80.332 29.8611 79.6931 28.5833 78.4154C27.3056 77.1376 26.6667 75.5543 26.6667 73.6654C26.6667 71.7765 27.3056 70.1931 28.5833 68.9154C29.8611 67.6376 31.4444 66.9987 33.3333 66.9987C35.2222 66.9987 36.8056 67.6376 38.0833 68.9154C39.3611 70.1931 40 71.7765 40 73.6654C40 75.5543 39.3611 77.1376 38.0833 78.4154C36.8056 79.6931 35.2222 80.332 33.3333 80.332ZM86.6667 80.332C84.7778 80.332 83.1944 79.6931 81.9167 78.4154C80.6389 77.1376 80 75.5543 80 73.6654C80 71.7765 80.6389 70.1931 81.9167 68.9154C83.1944 67.6376 84.7778 66.9987 86.6667 66.9987C88.5556 66.9987 90.1389 67.6376 91.4167 68.9154C92.6944 70.1931 93.3333 71.7765 93.3333 73.6654C93.3333 75.5543 92.6944 77.1376 91.4167 78.4154C90.1389 79.6931 88.5556 80.332 86.6667 80.332ZM60 106.999C58.1111 106.999 56.5278 106.36 55.25 105.082C53.9722 103.804 53.3333 102.221 53.3333 100.332C53.3333 98.4431 53.9722 96.8598 55.25 95.582C56.5278 94.3043 58.1111 93.6654 60 93.6654C61.8889 93.6654 63.4722 94.3043 64.75 95.582C66.0278 96.8598 66.6667 98.4431 66.6667 100.332C66.6667 102.221 66.0278 103.804 64.75 105.082C63.4722 106.36 61.8889 106.999 60 106.999ZM33.3333 106.999C31.4444 106.999 29.8611 106.36 28.5833 105.082C27.3056 103.804 26.6667 102.221 26.6667 100.332C26.6667 98.4431 27.3056 96.8598 28.5833 95.582C29.8611 94.3043 31.4444 93.6654 33.3333 93.6654C35.2222 93.6654 36.8056 94.3043 38.0833 95.582C39.3611 96.8598 40 98.4431 40 100.332C40 102.221 39.3611 103.804 38.0833 105.082C36.8056 106.36 35.2222 106.999 33.3333 106.999ZM86.6667 106.999C84.7778 106.999 83.1944 106.36 81.9167 105.082C80.6389 103.804 80 102.221 80 100.332C80 98.4431 80.6389 96.8598 81.9167 95.582C83.1944 94.3043 84.7778 93.6654 86.6667 93.6654C88.5556 93.6654 90.1389 94.3043 91.4167 95.582C92.6944 96.8598 93.3333 98.4431 93.3333 100.332C93.3333 102.221 92.6944 103.804 91.4167 105.082C90.1389 106.36 88.5556 106.999 86.6667 106.999Z" fill="#B00020"/>
</svg>
