<svg width="20" height="20" viewBox="0 0 20 20" fill="none" xmlns="http://www.w3.org/2000/svg">
<path d="M17 2.66667H16.1667V1H14.5V2.66667H6.16667V1H4.5V2.66667H3.66667C2.75 2.66667 2 3.41667 2 4.33333V17.6667C2 18.5833 2.75 19.3333 3.66667 19.3333H17C17.9167 19.3333 18.6667 18.5833 18.6667 17.6667V4.33333C18.6667 3.41667 17.9167 2.66667 17 2.66667ZM17 17.6667H3.66667V8.5H17V17.6667ZM17 8.5H3.66667V4.33333H17V8.5Z" fill="#484848"/>
<path d="M14.0775 11.6348C14.0775 12.5996 13.8919 13.4062 13.5208 14.0547C13.1536 14.6992 12.6204 15.1855 11.9212 15.5137C11.222 15.8379 10.3802 16 9.39583 16H6.97005V7.43359H9.65951C10.5579 7.43359 11.3372 7.59375 11.9974 7.91406C12.6576 8.23047 13.1693 8.70117 13.5326 9.32617C13.8958 9.94727 14.0775 10.7168 14.0775 11.6348ZM12.1908 11.6816C12.1908 11.0488 12.097 10.5293 11.9095 10.123C11.7259 9.71289 11.4525 9.41016 11.0892 9.21484C10.7298 9.01953 10.2845 8.92188 9.75326 8.92188H8.78646V14.5H9.56576C10.4525 14.5 11.1107 14.2637 11.5404 13.791C11.974 13.3184 12.1908 12.6152 12.1908 11.6816Z" fill="#484848"/>
</svg>
