<svg width="60" height="60" viewBox="0 0 60 60" fill="none" xmlns="http://www.w3.org/2000/svg">
<g clip-path="url(#clip0_477_6831)">
<path d="M29.999 47.0156V62.0156M29.999 47.0156L34.999 52.0156M29.999 47.0156L24.999 52.0156" stroke="#F79E1B" stroke-width="1.5" stroke-linecap="round" stroke-linejoin="round"/>
<path d="M55 33.3825C55 39.24 51.39 44.265 46.25 46.4M35.9525 20.0675C37.484 19.5356 39.0938 19.2644 40.715 19.265C42.35 19.265 43.9225 19.5375 45.39 20.0375M45.39 20.0375C44.5925 12.985 38.54 7.5 31.19 7.5C23.3 7.5 16.905 13.82 16.905 21.6175C16.9042 23.2923 17.204 24.9536 17.79 26.5225M45.39 20.0375C47.5861 20.787 49.5659 22.0614 51.1575 23.75M17.79 26.5225C17.1062 26.3903 16.4114 26.3233 15.715 26.3225C9.7975 26.325 5 31.065 5 36.9125C5 41.6525 8.1525 45.665 12.5 47.015M17.79 26.5225C19.1731 26.7918 20.4897 27.3303 21.665 28.1075" stroke="#F79E1B" stroke-width="1.5" stroke-linecap="round"/>
</g>
<defs>
<clipPath id="clip0_477_6831">
<rect width="60" height="60" fill="white"/>
</clipPath>
</defs>
</svg>
