<svg width="20" height="22" viewBox="0 0 20 22" fill="none" xmlns="http://www.w3.org/2000/svg">
<path d="M10.1716 15.4961V20.9991M10.1716 15.4961L12.006 17.3304M10.1716 15.4961L8.33728 17.3304" stroke="#929292" stroke-linecap="round" stroke-linejoin="round"/>
<path d="M19.3436 10.4954C19.3436 12.6444 18.0192 14.4879 16.1334 15.2711M12.3556 5.6106C12.9174 5.41548 13.508 5.31597 14.1028 5.31619C14.7026 5.31619 15.2795 5.41617 15.8179 5.5996M15.8179 5.5996C15.5254 3.01227 13.3049 1 10.6084 1C7.71375 1 5.3676 3.3186 5.3676 6.17925C5.36732 6.79367 5.47729 7.40315 5.69228 7.97873M15.8179 5.5996C16.6236 5.87455 17.35 6.34209 17.9339 6.96159M5.69228 7.97873C5.44143 7.93023 5.18653 7.90566 4.93103 7.90536C2.76006 7.90628 1 9.64523 1 11.7905C1 13.5294 2.15656 15.0015 3.75153 15.4968M5.69228 7.97873C6.19969 8.07752 6.68272 8.2751 7.11391 8.56022" stroke="#929292" stroke-linecap="round"/>
</svg>
