<svg width="29" height="35" viewBox="0 0 29 35" fill="none" xmlns="http://www.w3.org/2000/svg">
<path d="M10 27.4987C9.08333 27.4987 8.29861 27.1723 7.64583 26.5195C6.99306 25.8668 6.66667 25.082 6.66667 24.1654V4.16536C6.66667 3.2487 6.99306 2.46398 7.64583 1.8112C8.29861 1.15842 9.08333 0.832031 10 0.832031H25C25.9167 0.832031 26.7014 1.15842 27.3542 1.8112C28.0069 2.46398 28.3333 3.2487 28.3333 4.16536V24.1654C28.3333 25.082 28.0069 25.8668 27.3542 26.5195C26.7014 27.1723 25.9167 27.4987 25 27.4987H10ZM10 24.1654H25V4.16536H10V24.1654ZM3.33333 34.1654C2.41667 34.1654 1.63194 33.839 0.979167 33.1862C0.326389 32.5334 0 31.7487 0 30.832V7.4987H3.33333V30.832H21.6667V34.1654H3.33333Z" fill="#F79E1B"/>
</svg>
