<svg width="53" height="51" viewBox="0 0 53 51" fill="none" xmlns="http://www.w3.org/2000/svg">
<path d="M22 35.4987C21.0833 35.4987 20.2986 35.1723 19.6458 34.5195C18.9931 33.8668 18.6667 33.082 18.6667 32.1654V12.1654C18.6667 11.2487 18.9931 10.464 19.6458 9.8112C20.2986 9.15842 21.0833 8.83203 22 8.83203H37C37.9167 8.83203 38.7014 9.15842 39.3542 9.8112C40.0069 10.464 40.3333 11.2487 40.3333 12.1654V32.1654C40.3333 33.082 40.0069 33.8668 39.3542 34.5195C38.7014 35.1723 37.9167 35.4987 37 35.4987H22ZM22 32.1654H37V12.1654H22V32.1654ZM15.3333 42.1654C14.4167 42.1654 13.6319 41.839 12.9792 41.1862C12.3264 40.5334 12 39.7487 12 38.832V15.4987H15.3333V38.832H33.6667V42.1654H15.3333Z" fill="#FF6F61"/>
</svg>
