<svg width="90" height="117" viewBox="0 0 90 117" fill="none" xmlns="http://www.w3.org/2000/svg">
<path d="M90 35.514C90 55.1278 69.8528 117 45 117C20.1472 117 0 55.1278 0 35.514C0 15.9002 20.1472 0 45 0C69.8528 0 90 15.9002 90 35.514Z" fill="#D9D9D9"/>
<circle cx="45" cy="45" r="35" fill="#A60000"/>
<path d="M59.7188 46.5391C59.7188 50.3984 59 53.625 57.5625 56.2188C56.125 58.7969 54.0391 60.7422 51.3047 62.0547C48.5703 63.3516 45.2734 64 41.4141 64H31.8984V29.7344H42.4453C45.9922 29.7344 49.0547 30.375 51.6328 31.6562C54.2109 32.9219 56.2031 34.8047 57.6094 37.3047C59.0156 39.7891 59.7188 42.8672 59.7188 46.5391ZM53.8594 46.7031C53.8594 43.8906 53.4141 41.5781 52.5234 39.7656C51.6484 37.9531 50.3516 36.6094 48.6328 35.7344C46.9297 34.8438 44.8281 34.3984 42.3281 34.3984H37.5234V59.2891H41.5078C45.6484 59.2891 48.7422 58.2344 50.7891 56.125C52.8359 54.0156 53.8594 50.875 53.8594 46.7031Z" fill="white"/>
</svg>
