<svg width="398" height="313" viewBox="0 0 398 313" fill="none" xmlns="http://www.w3.org/2000/svg">
<path d="M208.584 119.52C224.438 119.52 237.291 106.667 237.291 90.8126C237.291 74.9581 224.438 62.1055 208.584 62.1055C192.729 62.1055 179.877 74.9581 179.877 90.8126C179.877 106.667 192.729 119.52 208.584 119.52Z" fill="#D4D4D4"/>
<path d="M198.421 84.8367C198.42 84.8012 198.42 84.7657 198.42 84.7301C198.42 82.7262 199.013 80.767 200.123 79.0988C201.233 77.4306 202.812 76.1278 204.66 75.3542C206.509 74.5807 208.545 74.3708 210.512 74.7511C212.48 75.1313 214.291 76.0847 215.718 77.4914C217.146 78.898 218.125 80.6952 218.534 82.657C218.943 84.6188 218.762 86.6576 218.016 88.5173C217.269 90.3769 215.989 91.9743 214.337 93.1086C212.685 94.243 210.735 94.8637 208.731 94.8928V104.122" stroke="#F79E1B" stroke-width="2.44531" stroke-linecap="round" stroke-linejoin="round"/>
<path d="M256.873 71.4844H276.621" stroke="#D4D4D4" stroke-width="1.83398" stroke-miterlimit="10" stroke-linecap="round"/>
<path d="M256.873 77.1797H276.621" stroke="#D4D4D4" stroke-width="1.83398" stroke-miterlimit="10" stroke-linecap="round"/>
<path d="M256.873 82.8711H276.621" stroke="#D4D4D4" stroke-width="1.83398" stroke-miterlimit="10" stroke-linecap="round"/>
<path d="M73.1604 179.586H92.908" stroke="#D4D4D4" stroke-width="1.83398" stroke-miterlimit="10" stroke-linecap="round"/>
<path d="M73.1604 185.273H92.908" stroke="#D4D4D4" stroke-width="1.83398" stroke-miterlimit="10" stroke-linecap="round"/>
<path d="M73.1604 190.969H92.908" stroke="#D4D4D4" stroke-width="1.83398" stroke-miterlimit="10" stroke-linecap="round"/>
<path d="M294.759 220.172H314.507" stroke="#D4D4D4" stroke-width="1.83398" stroke-miterlimit="10" stroke-linecap="round"/>
<path d="M294.759 225.863H314.507" stroke="#D4D4D4" stroke-width="1.83398" stroke-miterlimit="10" stroke-linecap="round"/>
<path d="M294.759 231.559H314.507" stroke="#D4D4D4" stroke-width="1.83398" stroke-miterlimit="10" stroke-linecap="round"/>
<path d="M318.561 192.143C323.223 192.143 327.002 188.364 327.002 183.702C327.002 179.041 323.223 175.262 318.561 175.262C313.899 175.262 310.12 179.041 310.12 183.702C310.12 188.364 313.899 192.143 318.561 192.143Z" fill="#B9D4DB"/>
<path d="M296.288 194.167C298.705 194.167 300.664 192.208 300.664 189.791C300.664 187.374 298.705 185.414 296.288 185.414C293.871 185.414 291.911 187.374 291.911 189.791C291.911 192.208 293.871 194.167 296.288 194.167Z" fill="#B9D4DB"/>
<path d="M307.401 169.302C310.854 169.302 313.653 166.502 313.653 163.049C313.653 159.596 310.854 156.797 307.401 156.797C303.947 156.797 301.148 159.596 301.148 163.049C301.148 166.502 303.947 169.302 307.401 169.302Z" fill="#B9D4DB"/>
<path d="M126.492 248.262C132.038 248.262 136.535 243.765 136.535 238.219C136.535 232.672 132.038 228.176 126.492 228.176C120.945 228.176 116.449 232.672 116.449 238.219C116.449 243.765 120.945 248.262 126.492 248.262Z" fill="#B9D4DB"/>
<path d="M107.302 236.298C110.191 236.298 112.533 233.956 112.533 231.067C112.533 228.178 110.191 225.836 107.302 225.836C104.413 225.836 102.071 228.178 102.071 231.067C102.071 233.956 104.413 236.298 107.302 236.298Z" fill="#B9D4DB"/>
<path d="M112.107 216.301C113.773 216.301 115.124 214.95 115.124 213.283C115.124 211.617 113.773 210.266 112.107 210.266C110.44 210.266 109.089 211.617 109.089 213.283C109.089 214.95 110.44 216.301 112.107 216.301Z" fill="#B9D4DB"/>
<path d="M128.809 222.655C132.804 222.655 136.043 219.416 136.043 215.421C136.043 211.426 132.804 208.188 128.809 208.188C124.814 208.188 121.576 211.426 121.576 215.421C121.576 219.416 124.814 222.655 128.809 222.655Z" fill="#B9D4DB"/>
<path d="M133.848 97.4998C139.394 97.4998 143.891 93.0035 143.891 87.4569C143.891 81.9104 139.394 77.4141 133.848 77.4141C128.301 77.4141 123.805 81.9104 123.805 87.4569C123.805 93.0035 128.301 97.4998 133.848 97.4998Z" fill="#B9D4DB"/>
<path d="M134.255 72.2123C137.144 72.2123 139.486 69.8703 139.486 66.9812C139.486 64.0921 137.144 61.75 134.255 61.75C131.366 61.75 129.024 64.0921 129.024 66.9812C129.024 69.8703 131.366 72.2123 134.255 72.2123Z" fill="#B9D4DB"/>
<path d="M169.096 74.563C171.597 74.563 173.624 72.5359 173.624 70.0354C173.624 67.5349 171.597 65.5078 169.096 65.5078C166.596 65.5078 164.569 67.5349 164.569 70.0354C164.569 72.5359 166.596 74.563 169.096 74.563Z" fill="#B9D4DB"/>
<path d="M152.625 68.6521C154.291 68.6521 155.642 67.3012 155.642 65.6347C155.642 63.9682 154.291 62.6172 152.625 62.6172C150.958 62.6172 149.607 63.9682 149.607 65.6347C149.607 67.3012 150.958 68.6521 152.625 68.6521Z" fill="#B9D4DB"/>
<path d="M156.132 89.3422C160.127 89.3422 163.365 86.1036 163.365 82.1086C163.365 78.1136 160.127 74.875 156.132 74.875C152.137 74.875 148.898 78.1136 148.898 82.1086C148.898 86.1036 152.137 89.3422 156.132 89.3422Z" fill="#B9D4DB"/>
<path d="M294.281 142.588H124.187L118.641 128.527H294.281C294.499 128.527 294.716 128.57 294.918 128.654C295.12 128.738 295.303 128.86 295.457 129.015C295.612 129.169 295.735 129.353 295.818 129.554C295.902 129.756 295.945 129.973 295.945 130.191V140.924C295.945 141.143 295.902 141.359 295.818 141.561C295.735 141.763 295.612 141.946 295.457 142.101C295.303 142.255 295.12 142.378 294.918 142.461C294.716 142.545 294.499 142.588 294.281 142.588Z" fill="#D4D4D4"/>
<path d="M269.5 216.463H153.839C153.275 216.463 152.724 216.29 152.26 215.969C151.796 215.648 151.441 215.192 151.243 214.664L124.187 142.586H288.357L272.206 214.299C272.067 214.913 271.724 215.462 271.232 215.855C270.741 216.248 270.13 216.463 269.5 216.463Z" fill="#F79E1B"/>
<path d="M280.039 179.528C268.207 180.287 256.375 180.684 244.543 180.954C238.626 181.123 232.71 181.16 226.794 181.26L209.046 181.361C197.214 181.372 185.381 181.238 173.549 180.959C161.717 180.691 149.885 180.292 138.052 179.528C149.885 178.765 161.717 178.366 173.549 178.097C185.381 177.831 197.214 177.697 209.046 177.695L226.794 177.797C232.71 177.896 238.626 177.934 244.543 178.103C256.375 178.372 268.207 178.769 280.039 179.528Z" fill="#D4D4D4"/>
<path d="M256.895 142.586C256.221 149.033 255.191 155.4 254.054 161.742C252.902 168.082 251.616 174.391 250.197 180.67C248.786 186.951 247.244 193.202 245.572 199.424C244.728 202.534 243.855 205.636 242.922 208.726C242.439 210.267 241.98 211.813 241.479 213.35L241.092 214.517C240.94 214.946 240.693 215.334 240.37 215.654C240.066 215.954 239.699 216.183 239.296 216.323C238.892 216.463 238.463 216.511 238.038 216.463C238.422 216.417 238.791 216.29 239.12 216.088C239.449 215.887 239.731 215.617 239.946 215.296C240.146 215.001 240.279 214.664 240.333 214.311L240.487 213.126C240.692 211.523 240.94 209.929 241.165 208.33C241.647 205.139 242.188 201.962 242.758 198.791C243.911 192.451 245.198 186.143 246.62 179.864C248.036 173.584 249.58 167.333 251.25 161.111C252.942 154.893 254.74 148.699 256.895 142.586Z" fill="#D4D4D4"/>
<path d="M190.799 216.463C190.357 216.51 189.91 216.455 189.494 216.3C189.078 216.145 188.703 215.896 188.4 215.571C188.102 215.229 187.863 214.841 187.693 214.421L187.145 213.285C186.415 211.772 185.726 210.242 185.015 208.721C183.622 205.668 182.287 202.593 180.978 199.508C178.373 193.334 175.897 187.112 173.548 180.842C171.192 174.574 168.961 168.26 166.855 161.899C164.767 155.53 162.784 149.123 161.146 142.586C164.214 148.586 166.937 154.716 169.555 160.885C172.16 167.059 174.635 173.282 176.981 179.553C179.332 185.823 181.562 192.138 183.669 198.498C184.714 201.682 185.731 204.876 186.692 208.092C187.157 209.705 187.645 211.31 188.092 212.93L188.426 214.146C188.502 214.527 188.64 214.894 188.834 215.231C189.047 215.571 189.335 215.858 189.675 216.071C190.016 216.284 190.4 216.418 190.799 216.463Z" fill="#D4D4D4"/>
<path d="M182.558 273.143C188.886 273.143 194.016 268.013 194.016 261.685C194.016 255.357 188.886 250.227 182.558 250.227C176.229 250.227 171.099 255.357 171.099 261.685C171.099 268.013 176.229 273.143 182.558 273.143Z" fill="#C2C2C2"/>
<path d="M182.559 266.971C185.48 266.971 187.848 264.604 187.848 261.683C187.848 258.762 185.48 256.395 182.559 256.395C179.639 256.395 177.271 258.762 177.271 261.683C177.271 264.604 179.639 266.971 182.559 266.971Z" fill="#DBE8EC"/>
<path d="M248.655 273.143C254.983 273.143 260.114 268.013 260.114 261.685C260.114 255.357 254.983 250.227 248.655 250.227C242.327 250.227 237.197 255.357 237.197 261.685C237.197 268.013 242.327 273.143 248.655 273.143Z" fill="#C2C2C2"/>
<path d="M248.653 266.971C251.574 266.971 253.942 264.604 253.942 261.683C253.942 258.762 251.574 256.395 248.653 256.395C245.733 256.395 243.365 258.762 243.365 261.683C243.365 264.604 245.733 266.971 248.653 266.971Z" fill="#DBE8EC"/>
<path d="M210.059 142.586C211.184 148.697 211.944 154.83 212.594 160.97C213.23 167.11 213.728 173.259 214.09 179.415C214.46 185.571 214.697 191.736 214.8 197.908C214.884 204.081 214.857 210.261 214.461 216.463C213.332 210.352 212.57 204.219 211.921 198.079C211.286 191.939 210.789 185.79 210.43 179.633C210.065 173.477 209.83 167.313 209.725 161.141C209.642 154.967 209.669 148.787 210.059 142.586Z" fill="#D4D4D4"/>
<path d="M268.043 244.41H164.39C164.019 244.41 163.656 244.297 163.351 244.087C163.045 243.877 162.81 243.579 162.677 243.232L102.646 86.7461H70.8486C70.3622 86.7461 69.8958 86.5529 69.5518 86.2089C69.2079 85.865 69.0146 85.3985 69.0146 84.9121C69.0146 84.4257 69.2079 83.9592 69.5518 83.6153C69.8958 83.2713 70.3622 83.0781 70.8486 83.0781H103.907C104.278 83.0781 104.64 83.1907 104.946 83.4009C105.251 83.6111 105.486 83.909 105.619 84.2554L165.65 240.742H268.043C268.529 240.742 268.996 240.935 269.34 241.279C269.683 241.623 269.877 242.089 269.877 242.576C269.877 243.062 269.683 243.529 269.34 243.872C268.996 244.216 268.529 244.41 268.043 244.41Z" fill="#D4D4D4"/>
<path d="M86.796 79.6211H65.0327C64.3575 79.6211 63.8101 80.1685 63.8101 80.8437V89.6224C63.8101 90.2977 64.3575 90.8451 65.0327 90.8451H86.796C87.4712 90.8451 88.0186 90.2977 88.0186 89.6224V80.8437C88.0186 80.1685 87.4712 79.6211 86.796 79.6211Z" fill="#C2C2C2"/>
<path d="M208.583 111.442C209.495 111.442 210.234 110.703 210.234 109.791C210.234 108.88 209.495 108.141 208.583 108.141C207.671 108.141 206.932 108.88 206.932 109.791C206.932 110.703 207.671 111.442 208.583 111.442Z" fill="#F9AE2B"/>
</svg>
