<svg width="398" height="313" viewBox="0 0 398 313" fill="none" xmlns="http://www.w3.org/2000/svg">
<path d="M208.582 119.52C224.437 119.52 237.289 106.667 237.289 90.8126C237.289 74.9581 224.437 62.1055 208.582 62.1055C192.728 62.1055 179.875 74.9581 179.875 90.8126C179.875 106.667 192.728 119.52 208.582 119.52Z" fill="#D4D4D4"/>
<path d="M198.422 84.8367C198.422 84.8012 198.422 84.7657 198.422 84.7301C198.422 82.7262 199.014 80.767 200.125 79.0988C201.235 77.4306 202.814 76.1278 204.662 75.3542C206.511 74.5807 208.547 74.3708 210.514 74.7511C212.482 75.1313 214.293 76.0847 215.72 77.4914C217.147 78.898 218.127 80.6952 218.536 82.657C218.944 84.6188 218.764 86.6576 218.017 88.5173C217.271 90.3769 215.991 91.9743 214.339 93.1086C212.687 94.243 210.737 94.8637 208.733 94.8928V104.122" stroke="#6B79F5" stroke-width="2.44531" stroke-linecap="round" stroke-linejoin="round"/>
<path d="M256.875 71.4844H276.623" stroke="#D4D4D4" stroke-width="1.83398" stroke-miterlimit="10" stroke-linecap="round"/>
<path d="M256.875 77.1797H276.623" stroke="#D4D4D4" stroke-width="1.83398" stroke-miterlimit="10" stroke-linecap="round"/>
<path d="M256.875 82.8711H276.623" stroke="#D4D4D4" stroke-width="1.83398" stroke-miterlimit="10" stroke-linecap="round"/>
<path d="M73.1641 179.586H92.9117" stroke="#D4D4D4" stroke-width="1.83398" stroke-miterlimit="10" stroke-linecap="round"/>
<path d="M73.1641 185.273H92.9117" stroke="#D4D4D4" stroke-width="1.83398" stroke-miterlimit="10" stroke-linecap="round"/>
<path d="M73.1641 190.969H92.9117" stroke="#D4D4D4" stroke-width="1.83398" stroke-miterlimit="10" stroke-linecap="round"/>
<path d="M294.758 220.172H314.505" stroke="#D4D4D4" stroke-width="1.83398" stroke-miterlimit="10" stroke-linecap="round"/>
<path d="M294.758 225.863H314.505" stroke="#D4D4D4" stroke-width="1.83398" stroke-miterlimit="10" stroke-linecap="round"/>
<path d="M294.758 231.559H314.505" stroke="#D4D4D4" stroke-width="1.83398" stroke-miterlimit="10" stroke-linecap="round"/>
<path d="M318.566 192.143C323.227 192.143 327.007 188.364 327.007 183.702C327.007 179.041 323.227 175.262 318.566 175.262C313.904 175.262 310.125 179.041 310.125 183.702C310.125 188.364 313.904 192.143 318.566 192.143Z" fill="#B9D4DB"/>
<path d="M296.291 194.167C298.708 194.167 300.667 192.208 300.667 189.791C300.667 187.374 298.708 185.414 296.291 185.414C293.874 185.414 291.914 187.374 291.914 189.791C291.914 192.208 293.874 194.167 296.291 194.167Z" fill="#B9D4DB"/>
<path d="M307.401 169.302C310.854 169.302 313.653 166.502 313.653 163.049C313.653 159.596 310.854 156.797 307.401 156.797C303.948 156.797 301.148 159.596 301.148 163.049C301.148 166.502 303.948 169.302 307.401 169.302Z" fill="#B9D4DB"/>
<path d="M126.496 248.262C132.043 248.262 136.539 243.765 136.539 238.219C136.539 232.672 132.043 228.176 126.496 228.176C120.949 228.176 116.453 232.672 116.453 238.219C116.453 243.765 120.949 248.262 126.496 248.262Z" fill="#B9D4DB"/>
<path d="M107.301 236.298C110.191 236.298 112.533 233.956 112.533 231.067C112.533 228.178 110.191 225.836 107.301 225.836C104.412 225.836 102.07 228.178 102.07 231.067C102.07 233.956 104.412 236.298 107.301 236.298Z" fill="#B9D4DB"/>
<path d="M112.111 216.301C113.778 216.301 115.129 214.95 115.129 213.283C115.129 211.617 113.778 210.266 112.111 210.266C110.445 210.266 109.094 211.617 109.094 213.283C109.094 214.95 110.445 216.301 112.111 216.301Z" fill="#B9D4DB"/>
<path d="M128.812 222.655C132.807 222.655 136.045 219.416 136.045 215.421C136.045 211.426 132.807 208.188 128.812 208.188C124.817 208.188 121.578 211.426 121.578 215.421C121.578 219.416 124.817 222.655 128.812 222.655Z" fill="#B9D4DB"/>
<path d="M133.848 97.4998C139.394 97.4998 143.89 93.0035 143.89 87.4569C143.89 81.9104 139.394 77.4141 133.848 77.4141C128.301 77.4141 123.805 81.9104 123.805 87.4569C123.805 93.0035 128.301 97.4998 133.848 97.4998Z" fill="#B9D4DB"/>
<path d="M134.255 72.2123C137.144 72.2123 139.486 69.8703 139.486 66.9812C139.486 64.0921 137.144 61.75 134.255 61.75C131.366 61.75 129.023 64.0921 129.023 66.9812C129.023 69.8703 131.366 72.2123 134.255 72.2123Z" fill="#B9D4DB"/>
<path d="M169.098 74.563C171.598 74.563 173.625 72.5359 173.625 70.0354C173.625 67.5349 171.598 65.5078 169.098 65.5078C166.597 65.5078 164.57 67.5349 164.57 70.0354C164.57 72.5359 166.597 74.563 169.098 74.563Z" fill="#B9D4DB"/>
<path d="M152.627 68.6521C154.293 68.6521 155.644 67.3012 155.644 65.6347C155.644 63.9682 154.293 62.6172 152.627 62.6172C150.96 62.6172 149.609 63.9682 149.609 65.6347C149.609 67.3012 150.96 68.6521 152.627 68.6521Z" fill="#B9D4DB"/>
<path d="M156.132 89.3422C160.127 89.3422 163.366 86.1036 163.366 82.1086C163.366 78.1136 160.127 74.875 156.132 74.875C152.137 74.875 148.898 78.1136 148.898 82.1086C148.898 86.1036 152.137 89.3422 156.132 89.3422Z" fill="#B9D4DB"/>
<path d="M294.281 142.588H124.187L118.641 128.527H294.281C294.499 128.527 294.716 128.57 294.917 128.654C295.119 128.738 295.303 128.86 295.457 129.015C295.612 129.169 295.734 129.353 295.818 129.554C295.902 129.756 295.945 129.973 295.945 130.191V140.924C295.945 141.143 295.902 141.359 295.818 141.561C295.734 141.763 295.612 141.946 295.457 142.101C295.303 142.255 295.119 142.378 294.917 142.461C294.716 142.545 294.499 142.588 294.281 142.588Z" fill="#D4D4D4"/>
<path d="M269.501 216.463H153.84C153.276 216.463 152.725 216.29 152.261 215.969C151.797 215.648 151.442 215.192 151.244 214.664L124.188 142.586H288.358L272.206 214.299C272.068 214.913 271.725 215.462 271.233 215.855C270.741 216.248 270.131 216.463 269.501 216.463Z" fill="#6B79F5"/>
<path d="M280.042 179.528C268.21 180.287 256.377 180.684 244.545 180.954C238.629 181.123 232.713 181.16 226.797 181.26L209.048 181.361C197.216 181.372 185.384 181.238 173.551 180.959C161.719 180.691 149.887 180.292 138.055 179.528C149.887 178.765 161.719 178.366 173.551 178.097C185.384 177.831 197.216 177.697 209.048 177.695L226.797 177.797C232.713 177.896 238.629 177.934 244.545 178.103C256.377 178.372 268.209 178.769 280.042 179.528Z" fill="#D4D4D4"/>
<path d="M256.896 142.586C256.222 149.033 255.192 155.4 254.055 161.742C252.903 168.082 251.617 174.391 250.198 180.67C248.786 186.951 247.245 193.202 245.573 199.424C244.729 202.534 243.855 205.636 242.923 208.726C242.44 210.267 241.981 211.813 241.479 213.35L241.093 214.517C240.941 214.946 240.694 215.334 240.37 215.654C240.067 215.954 239.7 216.183 239.297 216.323C238.893 216.463 238.463 216.511 238.039 216.463C238.422 216.417 238.791 216.29 239.12 216.088C239.45 215.887 239.731 215.617 239.946 215.296C240.147 215.001 240.279 214.664 240.333 214.311L240.487 213.126C240.693 211.523 240.941 209.929 241.166 208.33C241.648 205.139 242.188 201.962 242.759 198.791C243.911 192.451 245.199 186.143 246.621 179.864C248.037 173.584 249.58 167.333 251.251 161.111C252.942 154.893 254.741 148.699 256.896 142.586Z" fill="#D4D4D4"/>
<path d="M190.801 216.463C190.359 216.51 189.913 216.455 189.496 216.3C189.08 216.145 188.705 215.896 188.402 215.571C188.104 215.229 187.866 214.841 187.695 214.421L187.147 213.285C186.417 211.772 185.729 210.242 185.017 208.721C183.625 205.668 182.289 202.593 180.981 199.508C178.376 193.334 175.899 187.112 173.55 180.842C171.195 174.574 168.964 168.26 166.858 161.899C164.769 155.53 162.786 149.123 161.148 142.586C164.217 148.586 166.94 154.716 169.558 160.885C172.162 167.059 174.638 173.282 176.983 179.553C179.335 185.823 181.564 192.138 183.672 198.498C184.717 201.682 185.734 204.876 186.694 208.092C187.159 209.705 187.648 211.31 188.094 212.93L188.428 214.146C188.505 214.527 188.642 214.894 188.836 215.231C189.05 215.571 189.338 215.858 189.678 216.071C190.018 216.284 190.402 216.418 190.801 216.463Z" fill="#D4D4D4"/>
<path d="M182.56 273.143C188.888 273.143 194.018 268.013 194.018 261.685C194.018 255.357 188.888 250.227 182.56 250.227C176.232 250.227 171.102 255.357 171.102 261.685C171.102 268.013 176.232 273.143 182.56 273.143Z" fill="#C2C2C2"/>
<path d="M182.562 266.971C185.483 266.971 187.85 264.604 187.85 261.683C187.85 258.762 185.483 256.395 182.562 256.395C179.641 256.395 177.273 258.762 177.273 261.683C177.273 264.604 179.641 266.971 182.562 266.971Z" fill="#DBE8EC"/>
<path d="M248.654 273.143C254.982 273.143 260.112 268.013 260.112 261.685C260.112 255.357 254.982 250.227 248.654 250.227C242.325 250.227 237.195 255.357 237.195 261.685C237.195 268.013 242.325 273.143 248.654 273.143Z" fill="#C2C2C2"/>
<path d="M248.656 266.971C251.576 266.971 253.944 264.604 253.944 261.683C253.944 258.762 251.576 256.395 248.656 256.395C245.735 256.395 243.367 258.762 243.367 261.683C243.367 264.604 245.735 266.971 248.656 266.971Z" fill="#DBE8EC"/>
<path d="M210.06 142.586C211.185 148.697 211.945 154.83 212.595 160.97C213.23 167.11 213.729 173.259 214.091 179.415C214.461 185.571 214.697 191.736 214.801 197.908C214.885 204.081 214.857 210.261 214.462 216.463C213.332 210.352 212.571 204.219 211.922 198.079C211.287 191.939 210.79 185.79 210.431 179.633C210.066 173.477 209.831 167.313 209.726 161.141C209.643 154.967 209.669 148.787 210.06 142.586Z" fill="#D4D4D4"/>
<path d="M268.044 244.41H164.391C164.02 244.41 163.657 244.297 163.352 244.087C163.046 243.877 162.811 243.579 162.678 243.232L102.647 86.7461H70.8496C70.3632 86.7461 69.8967 86.5529 69.5528 86.2089C69.2089 85.865 69.0156 85.3985 69.0156 84.9121C69.0156 84.4257 69.2089 83.9592 69.5528 83.6153C69.8967 83.2713 70.3632 83.0781 70.8496 83.0781H103.908C104.279 83.0781 104.641 83.1907 104.947 83.4009C105.252 83.6111 105.487 83.909 105.62 84.2554L165.651 240.742H268.044C268.53 240.742 268.997 240.935 269.34 241.279C269.684 241.623 269.878 242.089 269.878 242.576C269.878 243.062 269.684 243.529 269.34 243.872C268.997 244.216 268.53 244.41 268.044 244.41Z" fill="#D4D4D4"/>
<path d="M86.7984 79.6211H65.0352C64.3599 79.6211 63.8125 80.1685 63.8125 80.8437V89.6224C63.8125 90.2977 64.3599 90.8451 65.0352 90.8451H86.7984C87.4737 90.8451 88.0211 90.2977 88.0211 89.6224V80.8437C88.0211 80.1685 87.4737 79.6211 86.7984 79.6211Z" fill="#C2C2C2"/>
<path d="M208.588 111.442C209.5 111.442 210.239 110.703 210.239 109.791C210.239 108.88 209.5 108.141 208.588 108.141C207.676 108.141 206.938 108.88 206.938 109.791C206.938 110.703 207.676 111.442 208.588 111.442Z" fill="#F9AE2B"/>
</svg>
