<svg width="50" height="60" viewBox="0 0 50 60" fill="none" xmlns="http://www.w3.org/2000/svg">
<g clip-path="url(#clip0_1796_39361)">
<mask id="mask0_1796_39361" style="mask-type:luminance" maskUnits="userSpaceOnUse" x="0" y="0" width="50" height="50">
<path d="M0.210938 0.0585938H49.3271V49.7482H0.210938V0.0585938Z" fill="white"/>
</mask>
<g mask="url(#mask0_1796_39361)">
<path d="M24.7811 0.112246C24.796 0.0797328 24.821 0.0634766 24.8562 0.0634766C24.8907 0.0634766 24.9158 0.0797328 24.9312 0.112246L38.5348 27.5556C38.5694 27.6262 38.6171 27.685 38.6784 27.7319C38.7398 27.7788 38.8077 27.8088 38.8828 27.8213C42.5085 28.429 45.9352 29.5264 49.1628 31.1132C49.3362 31.1989 49.3267 31.2414 49.1348 31.2395C46.2742 31.2145 43.3039 31.3615 40.224 31.6816C38.7613 31.8335 37.3193 32.048 35.8983 32.3243C30.3921 33.3948 25.2113 35.0629 20.3564 37.3301C13.3881 40.5838 6.72897 44.9218 0.347542 49.6662C0.259953 49.7318 0.231353 49.7112 0.261741 49.603C0.326091 49.3623 0.414276 49.1341 0.525697 48.9171C1.33365 47.3628 2.13625 45.7828 2.93229 44.1753C10.195 29.5101 17.4779 14.8224 24.7811 0.112246ZM24.7573 14.9512C22.4067 19.6937 20.0871 24.3756 17.7997 28.9961C17.715 29.1675 17.6477 29.3494 17.5977 29.542C17.5881 29.5789 17.5965 29.6108 17.6233 29.6376C17.6501 29.6639 17.6811 29.6714 17.7156 29.6589C21.9074 28.1933 26.2254 27.3899 30.6704 27.2486C30.7008 27.2486 30.7264 27.248 30.7478 27.2467C30.7639 27.2455 30.78 27.2423 30.7955 27.2373C30.811 27.2317 30.8259 27.2248 30.8396 27.2154C30.8533 27.2067 30.8658 27.1961 30.8771 27.1836C30.8884 27.171 30.898 27.1573 30.9063 27.1423C30.9141 27.1279 30.92 27.1117 30.9248 27.0954C30.929 27.0791 30.9307 27.0623 30.9313 27.0447C30.9313 27.0279 30.9296 27.011 30.926 26.9941C30.9224 26.9778 30.9164 26.9616 30.9093 26.9466C29.0652 23.252 27.1335 19.3592 25.1142 15.2689C25.0522 15.1426 24.9706 15.03 24.8687 14.9306C24.8234 14.8875 24.7859 14.8937 24.7573 14.9512Z" fill="#F79E1B"/>
</g>
<mask id="mask1_1796_39361" style="mask-type:luminance" maskUnits="userSpaceOnUse" x="30" y="33" width="20" height="17">
<path d="M30.7188 33.7422H49.6331V49.8786H30.7188V33.7422Z" fill="white"/>
</mask>
<g mask="url(#mask1_1796_39361)">
<path d="M49.401 49.7831L30.9282 43.6319C30.8597 43.6094 30.8406 43.5644 30.8722 43.4969C30.9926 43.2368 31.1261 42.9948 31.272 42.771C33.5499 39.3015 36.3617 36.6142 39.7079 34.7097C40.3127 34.367 40.8841 34.0988 41.4227 33.905C41.4549 33.8931 41.4883 33.8881 41.5222 33.8887C41.5568 33.8893 41.5896 33.8969 41.6212 33.91C41.6527 33.9231 41.6813 33.9419 41.707 33.9656C41.732 33.9894 41.7528 34.0175 41.7689 34.0494L49.5083 49.6499C49.5744 49.7856 49.5387 49.83 49.401 49.7831Z" fill="#F79E1B"/>
</g>
<path d="M11.4158 59.7745H11.504V59.8745H8.439V59.7745H8.52718C8.66661 59.7745 8.77029 59.7294 8.83702 59.6394C8.90495 59.5481 8.93951 59.4618 8.93951 59.3818C8.93951 59.3005 8.92342 59.2192 8.89184 59.1392L8.41993 57.8987H6.17481L5.67431 59.1392C5.64213 59.2261 5.62664 59.3087 5.62664 59.3868C5.62664 59.4637 5.6612 59.5481 5.73151 59.6394C5.80301 59.7294 5.90847 59.7745 6.0485 59.7745H6.12476V59.8745H4.07031V59.7745H4.15611C4.30388 59.7745 4.45046 59.7282 4.59703 59.6344C4.7448 59.5394 4.86695 59.3981 4.96407 59.2092L7.18297 53.9397C7.48328 53.2744 7.64296 52.8342 7.66203 52.6191H7.74783L10.6007 59.1892C10.696 59.3843 10.8176 59.5312 10.9654 59.6294C11.1131 59.7263 11.2633 59.7745 11.4158 59.7745ZM6.33688 57.4761H8.25787L7.32597 54.9976L6.33688 57.4761Z" fill="#2F2F2F"/>
<path d="M16.4238 52.8213H18.4782V52.9213H18.3924C18.2447 52.9213 18.0969 52.9688 17.9491 53.0639C17.8026 53.1577 17.681 53.2984 17.5845 53.4866L15.3084 58.7561C15.014 59.4214 14.8579 59.8616 14.8389 60.0767H14.7531L11.843 53.4966C11.7459 53.3084 11.6237 53.1658 11.4759 53.0689C11.3294 52.9707 11.1798 52.9213 11.0255 52.9213H10.9492V52.8213H14.0023V52.9213H13.926C13.786 52.9213 13.6817 52.9676 13.6138 53.0589C13.5471 53.1489 13.5137 53.234 13.5137 53.314C13.5137 53.394 13.5262 53.4753 13.5518 53.5566L15.1844 57.7182L16.8742 53.5566C16.9058 53.4684 16.9219 53.3859 16.9219 53.309C16.9219 53.2327 16.8885 53.1489 16.8218 53.0589C16.7551 52.9676 16.6508 52.9213 16.5096 52.9213H16.4238V52.8213Z" fill="#2F2F2F"/>
<path d="M25.2771 59.7745H25.3653V59.8745H22.3003V59.7745H22.3885C22.5279 59.7745 22.6316 59.7294 22.6983 59.6394C22.7663 59.5481 22.8008 59.4618 22.8008 59.3818C22.8008 59.3005 22.7847 59.2192 22.7532 59.1392L22.2813 57.8987H20.0361L19.5356 59.1392C19.5035 59.2261 19.488 59.3087 19.488 59.3868C19.488 59.4637 19.5225 59.5481 19.5928 59.6394C19.6643 59.7294 19.7698 59.7745 19.9098 59.7745H19.9861V59.8745H17.9316V59.7745H18.0174C18.1652 59.7745 18.3118 59.7282 18.4584 59.6344C18.6061 59.5394 18.7283 59.3981 18.8254 59.2092L21.0443 53.9397C21.3446 53.2744 21.5043 52.8342 21.5234 52.6191H21.6092L24.462 59.1892C24.5574 59.3843 24.6789 59.5312 24.8267 59.6294C24.9745 59.7263 25.1246 59.7745 25.2771 59.7745ZM20.1982 57.4761H22.1192L21.1873 54.9976L20.1982 57.4761Z" fill="#2F2F2F"/>
<path d="M28.9925 53.2341V59.149C28.9985 59.324 29.0605 59.4729 29.1784 59.5942C29.2976 59.7142 29.4406 59.7742 29.6074 59.7742H29.7218L29.7314 59.8743H26.8118V59.7742H26.9381C27.0966 59.7742 27.2348 59.7142 27.3528 59.5942C27.472 59.4729 27.5387 59.3278 27.553 59.159V53.2341H26.2565C25.9609 53.241 25.7262 53.3386 25.5534 53.5268C25.3818 53.7156 25.296 53.9607 25.296 54.2621V54.3821H25.1982V52.6289C25.4616 52.744 25.84 52.8052 26.3327 52.8115H30.2033C30.3999 52.8115 30.6156 52.7915 30.8492 52.7515C31.0839 52.7102 31.246 52.6689 31.3354 52.6289V54.3821H31.24V54.2621C31.24 53.8456 31.0887 53.5493 30.7872 53.3742C30.6472 53.2879 30.478 53.241 30.2796 53.2341H28.9925Z" fill="#2F2F2F"/>
<path d="M38.5457 59.7745H38.6339V59.8745H35.5689V59.7745H35.6571C35.7965 59.7745 35.9002 59.7294 35.9669 59.6394C36.0348 59.5481 36.0694 59.4618 36.0694 59.3818C36.0694 59.3005 36.0533 59.2192 36.0217 59.1392L35.5498 57.8987H33.3047L32.8042 59.1392C32.772 59.2261 32.7565 59.3087 32.7565 59.3868C32.7565 59.4637 32.7911 59.5481 32.8614 59.6394C32.9329 59.7294 33.0384 59.7745 33.1784 59.7745H33.2546V59.8745H31.2002V59.7745H31.286C31.4338 59.7745 31.5803 59.7282 31.7269 59.6344C31.8747 59.5394 31.9968 59.3981 32.094 59.2092L34.3129 53.9397C34.6132 53.2744 34.7728 52.8342 34.7919 52.6191H34.8777L37.7306 59.1892C37.8259 59.3843 37.9475 59.5312 38.0952 59.6294C38.243 59.7263 38.3932 59.7745 38.5457 59.7745ZM33.4668 57.4761H35.3877L34.4559 54.9976L33.4668 57.4761Z" fill="#2F2F2F"/>
<path d="M41.3893 53.264H40.9769C40.9638 53.264 40.9543 53.264 40.9483 53.264V59.1388C40.9543 59.3139 41.0163 59.4639 41.1342 59.589C41.2534 59.7128 41.3964 59.774 41.5633 59.774H41.6872V59.8741H38.7676V59.774H38.8939C39.1239 59.774 39.2997 59.6702 39.4206 59.4614C39.4731 59.3664 39.5022 59.2626 39.5088 59.1488V53.5566C39.5022 53.3815 39.4397 53.2327 39.3205 53.1089C39.2013 52.9839 39.0589 52.9213 38.8939 52.9213H38.7676V52.8213H42.0614C42.6822 52.8213 43.2078 52.9626 43.6368 53.244C43.8543 53.3859 44.0265 53.5828 44.154 53.8342C44.2827 54.0862 44.347 54.4157 44.347 54.8221C44.347 55.2272 44.2124 55.6186 43.9442 55.995C43.6755 56.3702 43.2846 56.5853 42.7716 56.6403C43.1434 56.7672 43.4699 57.0623 43.7512 57.5256C44.4423 58.688 44.9548 59.3801 45.2884 59.6015C45.4553 59.7103 45.6632 59.7678 45.9129 59.774V59.8741H44.9715C44.4149 59.8741 43.9526 59.7978 43.5843 59.644C43.2155 59.4889 42.9253 59.2163 42.7144 58.8262C42.5935 58.6048 42.3283 58.0302 41.9184 57.103C41.7384 56.6928 41.5209 56.4677 41.2653 56.4277V56.3277H41.5633C41.8504 56.3277 42.1049 56.237 42.3259 56.0551C42.5464 55.8737 42.6953 55.5774 42.7716 55.1672C42.7984 55.0272 42.8121 54.9165 42.8121 54.8346C42.8121 54.2844 42.7061 53.8867 42.4951 53.6416C42.2836 53.3965 42.0113 53.2708 41.6777 53.264C41.6139 53.264 41.518 53.264 41.3893 53.264Z" fill="#2F2F2F"/>
</g>
<defs>
<clipPath id="clip0_1796_39361">
<rect width="50" height="60" fill="white"/>
</clipPath>
</defs>
</svg>
