<svg width="48" height="48" viewBox="0 0 48 48" fill="none" xmlns="http://www.w3.org/2000/svg">
<path d="M24 4C18.6957 4 13.6086 6.10714 9.85786 9.85786C6.10714 13.6086 4 18.6957 4 24C4 29.3043 6.10714 34.3914 9.85786 38.1421C13.6086 41.8929 18.6957 44 24 44C29.3043 44 34.3914 41.8929 38.1421 38.1421C41.8929 34.3914 44 29.3043 44 24C44 18.6957 41.8929 13.6086 38.1421 9.85786C34.3914 6.10714 29.3043 4 24 4Z" fill="#039BE5"/>
<path d="M26.572 29.0358H31.489L32.261 24.0408H26.571V21.3108C26.571 19.2358 27.249 17.3958 29.19 17.3958H32.309V13.0368C31.761 12.9628 30.602 12.8008 28.412 12.8008C23.839 12.8008 21.158 15.2158 21.158 20.7178V24.0408H16.457V29.0358H21.158V42.7648C22.089 42.9048 23.032 42.9998 24 42.9998C24.875 42.9998 25.729 42.9198 26.572 42.8058V29.0358Z" fill="white"/>
</svg>
