<svg width="50" height="60" viewBox="0 0 50 60" fill="none" xmlns="http://www.w3.org/2000/svg">
<g clip-path="url(#clip0_641_979)">
<mask id="mask0_641_979" style="mask-type:luminance" maskUnits="userSpaceOnUse" x="0" y="0" width="50" height="50">
<path d="M0.210938 0.0585938H49.3271V49.7482H0.210938V0.0585938Z" fill="white"/>
</mask>
<g mask="url(#mask0_641_979)">
<path d="M24.7815 0.112093C24.7964 0.0795802 24.8214 0.063324 24.8566 0.063324C24.8911 0.063324 24.9162 0.0795802 24.9317 0.112093L38.5353 27.5554C38.5698 27.6261 38.6175 27.6848 38.6789 27.7317C38.7402 27.7786 38.8082 27.8086 38.8832 27.8212C42.5089 28.4289 45.9356 29.5262 49.1632 31.1131C49.3366 31.1987 49.3271 31.2413 49.1352 31.2394C46.2746 31.2144 43.3043 31.3613 40.2245 31.6814C38.7617 31.8334 37.3197 32.0478 35.8987 32.3242C30.3925 33.3946 25.2117 35.0628 20.3568 37.3299C13.3885 40.5837 6.72939 44.9216 0.347959 49.666C0.260371 49.7317 0.231771 49.711 0.262158 49.6029C0.326509 49.3622 0.414693 49.1339 0.526115 48.917C1.33407 47.3626 2.13667 45.7826 2.93271 44.1751C10.1954 29.5099 17.4783 14.8223 24.7815 0.112093ZM24.7577 14.9511C22.4071 19.6936 20.0875 24.3754 17.8001 28.996C17.7155 29.1673 17.6481 29.3493 17.5981 29.5418C17.5886 29.5787 17.5969 29.6106 17.6237 29.6375C17.6505 29.6638 17.6815 29.6713 17.7161 29.6588C21.9078 28.1932 26.2258 27.3897 30.6708 27.2484C30.7012 27.2484 30.7268 27.2478 30.7482 27.2466C30.7643 27.2453 30.7804 27.2422 30.7959 27.2372C30.8114 27.2315 30.8263 27.2247 30.84 27.2153C30.8537 27.2065 30.8662 27.1959 30.8775 27.1834C30.8889 27.1709 30.8984 27.1571 30.9067 27.1421C30.9145 27.1278 30.9204 27.1115 30.9252 27.0952C30.9294 27.079 30.9312 27.0621 30.9318 27.0446C30.9318 27.0277 30.93 27.0108 30.9264 26.994C30.9228 26.9777 30.9169 26.9614 30.9097 26.9464C29.0656 23.2519 27.1339 19.3591 25.1146 15.2687C25.0526 15.1424 24.971 15.0299 24.8691 14.9304C24.8238 14.8873 24.7863 14.8936 24.7577 14.9511Z" fill="#3AAFA9"/>
</g>
<mask id="mask1_641_979" style="mask-type:luminance" maskUnits="userSpaceOnUse" x="30" y="33" width="20" height="17">
<path d="M30.7192 33.7422H49.6335V49.8786H30.7192V33.7422Z" fill="white"/>
</mask>
<g mask="url(#mask1_641_979)">
<path d="M49.402 49.7831L30.9292 43.6319C30.8607 43.6094 30.8416 43.5644 30.8732 43.4969C30.9936 43.2368 31.127 42.9948 31.273 42.771C33.5509 39.3015 36.3627 36.6142 39.7089 34.7097C40.3137 34.367 40.8851 34.0988 41.4237 33.905C41.4559 33.8931 41.4893 33.8881 41.5232 33.8887C41.5578 33.8893 41.5906 33.8969 41.6221 33.91C41.6537 33.9231 41.6823 33.9419 41.7079 33.9656C41.733 33.9894 41.7538 34.0175 41.7699 34.0494L49.5092 49.6499C49.5754 49.7856 49.5396 49.83 49.402 49.7831Z" fill="#3AAFA9"/>
</g>
<path d="M11.4153 59.7745H11.5035V59.8745H8.43851V59.7745H8.5267C8.66612 59.7745 8.7698 59.7294 8.83653 59.6394C8.90446 59.5481 8.93902 59.4618 8.93902 59.3818C8.93902 59.3005 8.92293 59.2192 8.89135 59.1392L8.41945 57.8987H6.17433L5.67382 59.1392C5.64165 59.2261 5.62615 59.3087 5.62615 59.3868C5.62615 59.4637 5.66071 59.5481 5.73102 59.6394C5.80252 59.7294 5.90799 59.7745 6.04801 59.7745H6.12428V59.8745H4.06982V59.7745H4.15562C4.30339 59.7745 4.44997 59.7282 4.59655 59.6344C4.74431 59.5394 4.86646 59.3981 4.96358 59.2092L7.18249 53.9397C7.48279 53.2744 7.64247 52.8342 7.66154 52.6191H7.74734L10.6002 59.1892C10.6955 59.3843 10.8171 59.5312 10.9649 59.6294C11.1126 59.7263 11.2628 59.7745 11.4153 59.7745ZM6.33639 57.4761H8.25738L7.32549 54.9976L6.33639 57.4761Z" fill="#2F2F2F"/>
<path d="M16.4243 52.8213H18.4787V52.9213H18.3929C18.2452 52.9213 18.0974 52.9688 17.9496 53.0639C17.803 53.1577 17.6815 53.2984 17.585 53.4866L15.3089 58.7561C15.0145 59.4214 14.8584 59.8616 14.8393 60.0767H14.7535L11.8435 53.4966C11.7463 53.3084 11.6242 53.1658 11.4764 53.0689C11.3299 52.9707 11.1803 52.9213 11.026 52.9213H10.9497V52.8213H14.0028V52.9213H13.9265C13.7865 52.9213 13.6822 52.9676 13.6143 53.0589C13.5476 53.1489 13.5142 53.234 13.5142 53.314C13.5142 53.394 13.5267 53.4753 13.5523 53.5566L15.1849 57.7182L16.8747 53.5566C16.9063 53.4684 16.9224 53.3859 16.9224 53.309C16.9224 53.2327 16.889 53.1489 16.8223 53.0589C16.7556 52.9676 16.6513 52.9213 16.5101 52.9213H16.4243V52.8213Z" fill="#2F2F2F"/>
<path d="M25.2771 59.7745H25.3653V59.8745H22.3003V59.7745H22.3885C22.5279 59.7745 22.6316 59.7294 22.6983 59.6394C22.7663 59.5481 22.8008 59.4618 22.8008 59.3818C22.8008 59.3005 22.7847 59.2192 22.7532 59.1392L22.2813 57.8987H20.0361L19.5356 59.1392C19.5035 59.2261 19.488 59.3087 19.488 59.3868C19.488 59.4637 19.5225 59.5481 19.5928 59.6394C19.6643 59.7294 19.7698 59.7745 19.9098 59.7745H19.9861V59.8745H17.9316V59.7745H18.0174C18.1652 59.7745 18.3118 59.7282 18.4584 59.6344C18.6061 59.5394 18.7283 59.3981 18.8254 59.2092L21.0443 53.9397C21.3446 53.2744 21.5043 52.8342 21.5234 52.6191H21.6092L24.462 59.1892C24.5574 59.3843 24.6789 59.5312 24.8267 59.6294C24.9745 59.7263 25.1246 59.7745 25.2771 59.7745ZM20.1982 57.4761H22.1192L21.1873 54.9976L20.1982 57.4761Z" fill="#2F2F2F"/>
<path d="M28.9928 53.2343V59.1491C28.9987 59.3242 29.0607 59.473 29.1787 59.5943C29.2978 59.7143 29.4408 59.7744 29.6077 59.7744H29.7221L29.7316 59.8744H26.812V59.7744H26.9383C27.0968 59.7744 27.235 59.7143 27.353 59.5943C27.4722 59.473 27.5389 59.3279 27.5532 59.1591V53.2343H26.2567C25.9611 53.2412 25.7264 53.3387 25.5536 53.5269C25.382 53.7157 25.2962 53.9608 25.2962 54.2622V54.3822H25.1985V52.629C25.4618 52.7441 25.8402 52.8054 26.3329 52.8116H30.2035C30.4001 52.8116 30.6158 52.7916 30.8494 52.7516C31.0841 52.7103 31.2462 52.6691 31.3356 52.629V54.3822H31.2403V54.2622C31.2403 53.8458 31.0889 53.5494 30.7874 53.3743C30.6474 53.2881 30.4782 53.2412 30.2798 53.2343H28.9928Z" fill="#2F2F2F"/>
<path d="M38.546 59.7744H38.6342V59.8744H35.5692V59.7744H35.6573C35.7968 59.7744 35.9004 59.7293 35.9672 59.6393C36.0351 59.548 36.0697 59.4617 36.0697 59.3817C36.0697 59.3004 36.0536 59.2191 36.022 59.1391L35.5501 57.8986H33.305L32.8045 59.1391C32.7723 59.226 32.7568 59.3085 32.7568 59.3867C32.7568 59.4636 32.7914 59.548 32.8617 59.6393C32.9332 59.7293 33.0386 59.7744 33.1787 59.7744H33.2549V59.8744H31.2005V59.7744H31.2863C31.434 59.7744 31.5806 59.7281 31.7272 59.6343C31.875 59.5393 31.9971 59.398 32.0942 59.2091L34.3131 53.9396C34.6134 53.2743 34.7731 52.8341 34.7922 52.619H34.878L37.7309 59.1891C37.8262 59.3842 37.9478 59.5311 38.0955 59.6293C38.2433 59.7262 38.3934 59.7744 38.546 59.7744ZM33.467 57.476H35.388L34.4561 54.9975L33.467 57.476Z" fill="#2F2F2F"/>
<path d="M41.3893 53.264H40.9769C40.9638 53.264 40.9543 53.264 40.9483 53.264V59.1388C40.9543 59.3139 41.0163 59.4639 41.1342 59.589C41.2534 59.7128 41.3964 59.774 41.5633 59.774H41.6872V59.8741H38.7676V59.774H38.8939C39.1239 59.774 39.2997 59.6702 39.4206 59.4614C39.4731 59.3664 39.5022 59.2626 39.5088 59.1488V53.5566C39.5022 53.3815 39.4397 53.2327 39.3205 53.1089C39.2013 52.9839 39.0589 52.9213 38.8939 52.9213H38.7676V52.8213H42.0614C42.6822 52.8213 43.2078 52.9626 43.6368 53.244C43.8543 53.3859 44.0265 53.5828 44.154 53.8342C44.2827 54.0862 44.347 54.4157 44.347 54.8221C44.347 55.2272 44.2124 55.6186 43.9442 55.995C43.6755 56.3702 43.2846 56.5853 42.7716 56.6403C43.1434 56.7672 43.4699 57.0623 43.7512 57.5256C44.4423 58.688 44.9548 59.3801 45.2884 59.6015C45.4553 59.7103 45.6632 59.7678 45.9129 59.774V59.8741H44.9715C44.4149 59.8741 43.9526 59.7978 43.5843 59.644C43.2155 59.4889 42.9253 59.2163 42.7144 58.8262C42.5935 58.6048 42.3283 58.0302 41.9184 57.103C41.7384 56.6928 41.5209 56.4677 41.2653 56.4277V56.3277H41.5633C41.8504 56.3277 42.1049 56.237 42.3259 56.0551C42.5464 55.8737 42.6953 55.5774 42.7716 55.1672C42.7984 55.0272 42.8121 54.9165 42.8121 54.8346C42.8121 54.2844 42.7061 53.8867 42.4951 53.6416C42.2836 53.3965 42.0113 53.2708 41.6777 53.264C41.6139 53.264 41.518 53.264 41.3893 53.264Z" fill="#2F2F2F"/>
</g>
<defs>
<clipPath id="clip0_641_979">
<rect width="50" height="60" fill="white"/>
</clipPath>
</defs>
</svg>
