<svg width="20" height="20" viewBox="0 0 20 20" fill="none" xmlns="http://www.w3.org/2000/svg">
<path d="M17.001 2.66667H16.1676V1H14.501V2.66667H6.16764V1H4.50098V2.66667H3.66764C2.75098 2.66667 2.00098 3.41667 2.00098 4.33333V17.6667C2.00098 18.5833 2.75098 19.3333 3.66764 19.3333H17.001C17.9176 19.3333 18.6676 18.5833 18.6676 17.6667V4.33333C18.6676 3.41667 17.9176 2.66667 17.001 2.66667ZM17.001 17.6667H3.66764V8.5H17.001V17.6667ZM17.001 8.5H3.66764V4.33333H17.001V8.5Z" fill="#484848"/>
<path d="M9.37923 16L7.31673 9.2793H7.264C7.27181 9.43945 7.28353 9.68164 7.29915 10.0059C7.31868 10.3262 7.33626 10.668 7.35189 11.0312C7.36751 11.3945 7.37533 11.7227 7.37533 12.0156V16H5.75228V7.43359H8.22493L10.2523 13.9844H10.2874L12.4378 7.43359H14.9105V16H13.2171V11.9453C13.2171 11.6758 13.221 11.3652 13.2288 11.0137C13.2406 10.6621 13.2542 10.3281 13.2699 10.0117C13.2855 9.69141 13.2972 9.45117 13.305 9.29102H13.2523L11.0433 16H9.37923Z" fill="#484848"/>
</svg>
