<svg width="22" height="23" viewBox="0 0 22 23" fill="none" xmlns="http://www.w3.org/2000/svg">
<g clip-path="url(#clip0_784_14686)">
<path d="M12.332 12.875C11.7376 12.431 11.0967 12.0908 10.4092 11.8545C9.72168 11.6182 9.00195 11.5 8.25 11.5C7.61979 11.5 7.01107 11.5824 6.42383 11.7471C5.83659 11.9118 5.28874 12.141 4.78027 12.4346C4.27181 12.7282 3.8099 13.0863 3.39453 13.5088C2.97917 13.9313 2.62109 14.3968 2.32031 14.9053C2.01953 15.4137 1.78678 15.9616 1.62207 16.5488C1.45736 17.1361 1.375 17.7448 1.375 18.375H0C0 17.5156 0.125326 16.6885 0.375977 15.8936C0.626628 15.0986 0.988281 14.3646 1.46094 13.6914C1.93359 13.0182 2.49219 12.4202 3.13672 11.8975C3.78125 11.3747 4.51172 10.9629 5.32812 10.6621C4.92708 10.4115 4.56901 10.1178 4.25391 9.78125C3.9388 9.44466 3.66667 9.07227 3.4375 8.66406C3.20833 8.25586 3.04004 7.82975 2.93262 7.38574C2.8252 6.94173 2.76432 6.47982 2.75 6C2.75 5.24089 2.89323 4.52832 3.17969 3.8623C3.46615 3.19629 3.86003 2.61621 4.36133 2.12207C4.86263 1.62793 5.44629 1.23405 6.1123 0.94043C6.77832 0.64681 7.49089 0.5 8.25 0.5C9.00911 0.5 9.72168 0.643229 10.3877 0.929688C11.0537 1.21615 11.6338 1.61003 12.1279 2.11133C12.6221 2.61263 13.016 3.19629 13.3096 3.8623C13.6032 4.52832 13.75 5.24089 13.75 6C13.75 6.47266 13.6927 6.93457 13.5781 7.38574C13.4635 7.83691 13.2917 8.26302 13.0625 8.66406C12.8333 9.0651 12.5612 9.43392 12.2461 9.77051C11.931 10.1071 11.5693 10.4043 11.1611 10.6621C11.5908 10.8268 11.9954 11.0202 12.375 11.2422V12.875H12.332ZM4.125 6C4.125 6.57292 4.23242 7.10645 4.44727 7.60059C4.66211 8.09473 4.95573 8.53158 5.32812 8.91113C5.70052 9.29069 6.13737 9.58789 6.63867 9.80273C7.13997 10.0176 7.67708 10.125 8.25 10.125C8.81575 10.125 9.34928 10.0176 9.85059 9.80273C10.3519 9.58789 10.7887 9.29427 11.1611 8.92188C11.5335 8.54948 11.8307 8.11263 12.0527 7.61133C12.2747 7.11003 12.3822 6.57292 12.375 6C12.375 5.43424 12.2676 4.90072 12.0527 4.39941C11.8379 3.89811 11.5443 3.46126 11.1719 3.08887C10.7995 2.71647 10.359 2.41927 9.85059 2.19727C9.34212 1.97526 8.80859 1.86784 8.25 1.875C7.67708 1.875 7.14355 1.98242 6.64941 2.19727C6.15527 2.41211 5.71842 2.70573 5.33887 3.07812C4.95931 3.45052 4.66211 3.89095 4.44727 4.39941C4.23242 4.90788 4.125 5.44141 4.125 6ZM22 14.25V22.5H11V14.25H13.75V11.5H19.25V14.25H22ZM15.125 14.25H17.875V12.875H15.125V14.25ZM20.625 18.375H19.25V19.75H17.875V18.375H15.125V19.75H13.75V18.375H12.375V21.125H20.625V18.375ZM20.625 15.625H12.375V17H20.625V15.625Z" fill="#484848"/>
</g>
<defs>
<clipPath id="clip0_784_14686">
<rect width="22" height="22" fill="white" transform="translate(0 0.5)"/>
</clipPath>
</defs>
</svg>
