<svg width="24" height="25" viewBox="0 0 24 25" fill="none" xmlns="http://www.w3.org/2000/svg">
<path d="M7.17 3.75H12.83C13.365 3.75 13.81 3.75 14.175 3.78C14.555 3.81 14.911 3.878 15.248 4.05C15.7656 4.31367 16.1863 4.73445 16.45 5.252C16.622 5.589 16.69 5.945 16.72 6.325C16.75 6.69 16.75 7.135 16.75 7.67V10.75C16.75 10.9489 16.671 11.1397 16.5303 11.2803C16.3897 11.421 16.1989 11.5 16 11.5C15.8011 11.5 15.6103 11.421 15.4697 11.2803C15.329 11.1397 15.25 10.9489 15.25 10.75V7.7C15.25 7.128 15.25 6.743 15.225 6.447C15.202 6.16 15.16 6.023 15.114 5.933C14.9944 5.69757 14.8032 5.50608 14.568 5.386C14.477 5.34 14.34 5.298 14.053 5.275C13.757 5.251 13.373 5.25 12.8 5.25H7.2C6.628 5.25 6.243 5.25 5.947 5.275C5.66 5.298 5.523 5.34 5.433 5.386C5.19741 5.50591 5.00591 5.69741 4.886 5.933C4.84 6.023 4.798 6.16 4.775 6.447C4.751 6.743 4.75 7.127 4.75 7.7V17.3C4.75 17.872 4.75 18.257 4.775 18.552C4.798 18.84 4.84 18.977 4.886 19.067C5 19.29 5.176 19.473 5.394 19.593C5.41 19.597 5.44533 19.6033 5.5 19.612C5.61667 19.6293 5.77533 19.6453 5.976 19.66C6.374 19.69 6.886 19.71 7.43 19.723C8.515 19.75 9.69 19.75 10.25 19.75C10.4489 19.75 10.6397 19.829 10.7803 19.9697C10.921 20.1103 11 20.3011 11 20.5C11 20.6989 10.921 20.8897 10.7803 21.0303C10.6397 21.171 10.4489 21.25 10.25 21.25H10.248C9.688 21.25 8.498 21.25 7.393 21.223C6.88355 21.2125 6.37441 21.1901 5.866 21.156C5.67033 21.1432 5.4752 21.1232 5.281 21.096C5.0979 21.0748 4.91915 21.0255 4.751 20.95C4.23412 20.6867 3.81375 20.2667 3.55 19.75C3.378 19.412 3.31 19.056 3.28 18.676C3.25 18.311 3.25 17.866 3.25 17.331V7.67C3.25 7.135 3.25 6.69 3.28 6.325C3.31 5.945 3.378 5.589 3.55 5.252C3.81367 4.73445 4.23445 4.31367 4.752 4.05C5.089 3.878 5.445 3.81 5.825 3.78C6.19 3.75 6.635 3.75 7.17 3.75Z" fill="#484848"/>
<path d="M14.371 12.75H18.629C19.024 12.75 19.365 12.75 19.646 12.773C19.943 12.797 20.238 12.851 20.521 12.995C20.945 13.211 21.289 13.555 21.505 13.979C21.649 14.262 21.703 14.557 21.727 14.854C21.75 15.134 21.75 15.476 21.75 15.871V18.129C21.75 18.524 21.75 18.865 21.727 19.146C21.7115 19.4495 21.6361 19.7469 21.505 20.021C21.2895 20.4446 20.9454 20.789 20.522 21.005C20.238 21.149 19.942 21.203 19.646 21.227C19.366 21.25 19.024 21.25 18.629 21.25H14.37C13.975 21.25 13.634 21.25 13.353 21.227C13.0495 21.2115 12.7521 21.1361 12.478 21.005C12.0544 20.7895 11.71 20.4454 11.494 20.022C11.3628 19.7476 11.2873 19.4498 11.272 19.146C11.249 18.866 11.249 18.524 11.249 18.129V15.87C11.249 15.475 11.249 15.134 11.272 14.853C11.2875 14.5495 11.3629 14.2521 11.494 13.978C11.7098 13.5543 12.0543 13.2098 12.478 12.994C12.7521 12.8629 13.0495 12.7875 13.353 12.772C13.633 12.749 13.975 12.749 14.37 12.749M13.475 14.267C13.271 14.284 13.195 14.312 13.158 14.331C13.0173 14.4028 12.9028 14.5173 12.831 14.658C12.811 14.696 12.784 14.771 12.767 14.975L12.765 14.999H20.233L20.231 14.975C20.214 14.771 20.186 14.695 20.167 14.658C20.0949 14.5171 19.9801 14.4027 19.839 14.331C19.802 14.311 19.727 14.284 19.523 14.267C19.2153 14.2501 18.9071 14.244 18.599 14.249H14.399C13.967 14.249 13.687 14.249 13.475 14.267ZM20.25 17H12.75V18.1C12.75 18.532 12.75 18.812 12.768 19.024C12.785 19.228 12.813 19.304 12.832 19.34C12.9037 19.4811 13.0181 19.5959 13.159 19.668C13.197 19.688 13.272 19.715 13.476 19.732C13.688 19.749 13.968 19.75 14.4 19.75H18.6C19.032 19.75 19.312 19.75 19.524 19.732C19.728 19.715 19.804 19.687 19.84 19.668C19.9812 19.5961 20.0961 19.4812 20.168 19.34C20.188 19.303 20.215 19.228 20.232 19.024C20.249 18.812 20.25 18.532 20.25 18.1V17ZM6.5 6.75C6.30109 6.75 6.11032 6.82902 5.96967 6.96967C5.82902 7.11032 5.75 7.30109 5.75 7.5C5.75 7.69891 5.82902 7.88968 5.96967 8.03033C6.11032 8.17098 6.30109 8.25 6.5 8.25H10.5C10.6989 8.25 10.8897 8.17098 11.0303 8.03033C11.171 7.88968 11.25 7.69891 11.25 7.5C11.25 7.30109 11.171 7.11032 11.0303 6.96967C10.8897 6.82902 10.6989 6.75 10.5 6.75H6.5ZM5.75 10.5C5.75 10.3011 5.82902 10.1103 5.96967 9.96967C6.11032 9.82902 6.30109 9.75 6.5 9.75H13.5C13.6989 9.75 13.8897 9.82902 14.0303 9.96967C14.171 10.1103 14.25 10.3011 14.25 10.5C14.25 10.6989 14.171 10.8897 14.0303 11.0303C13.8897 11.171 13.6989 11.25 13.5 11.25H6.5C6.30109 11.25 6.11032 11.171 5.96967 11.0303C5.82902 10.8897 5.75 10.6989 5.75 10.5ZM6.5 12.75C6.30109 12.75 6.11032 12.829 5.96967 12.9697C5.82902 13.1103 5.75 13.3011 5.75 13.5C5.75 13.6989 5.82902 13.8897 5.96967 14.0303C6.11032 14.171 6.30109 14.25 6.5 14.25H10C10.1989 14.25 10.3897 14.171 10.5303 14.0303C10.671 13.8897 10.75 13.6989 10.75 13.5C10.75 13.3011 10.671 13.1103 10.5303 12.9697C10.3897 12.829 10.1989 12.75 10 12.75H6.5ZM5.75 17.5C5.75 17.3011 5.82902 17.1103 5.96967 16.9697C6.11032 16.829 6.30109 16.75 6.5 16.75H8.5C8.69891 16.75 8.88968 16.829 9.03033 16.9697C9.17098 17.1103 9.25 17.3011 9.25 17.5C9.25 17.6989 9.17098 17.8897 9.03033 18.0303C8.88968 18.171 8.69891 18.25 8.5 18.25H6.5C6.30109 18.25 6.11032 18.171 5.96967 18.0303C5.82902 17.8897 5.75 17.6989 5.75 17.5Z" fill="#484848"/>
</svg>
