<svg width="33" height="40" viewBox="0 0 33 40" fill="none" xmlns="http://www.w3.org/2000/svg">
<g clip-path="url(#clip0_564_10416)">
<mask id="mask0_564_10416" style="mask-type:luminance" maskUnits="userSpaceOnUse" x="0" y="0" width="33" height="34">
<path d="M0.138672 0.0390625H32.5553V33.1655H0.138672V0.0390625Z" fill="white"/>
</mask>
<g mask="url(#mask0_564_10416)">
<path d="M16.3546 0.074505C16.3644 0.0528297 16.3809 0.0419922 16.4041 0.0419922C16.4269 0.0419922 16.4435 0.0528297 16.4537 0.074505L25.4321 18.3701C25.4549 18.4172 25.4863 18.4563 25.5268 18.4876C25.5673 18.5189 25.6122 18.5389 25.6617 18.5472C28.0547 18.9524 30.3163 19.6839 32.4465 20.7418C32.561 20.7989 32.5547 20.8273 32.428 20.826C30.54 20.8094 28.5797 20.9073 26.5469 21.1207C25.5815 21.222 24.6298 21.365 23.6919 21.5492C20.0579 22.2628 16.6385 23.375 13.4343 24.8864C8.83519 27.0556 4.44018 29.9475 0.22844 33.1105C0.170632 33.1542 0.151755 33.1405 0.171811 33.0684C0.214283 32.9079 0.272484 32.7557 0.346023 32.6111C0.879275 31.5749 1.40899 30.5215 1.93437 29.4498C6.72774 19.6731 11.5345 9.88129 16.3546 0.074505ZM16.3389 9.96716C14.7875 13.1288 13.2565 16.2501 11.7468 19.3304C11.691 19.4446 11.6466 19.5659 11.6135 19.6943C11.6072 19.7189 11.6127 19.7402 11.6304 19.7581C11.6481 19.7756 11.6686 19.7806 11.6914 19.7723C14.4579 18.7952 17.3078 18.2596 20.2415 18.1654C20.2616 18.1654 20.2785 18.165 20.2926 18.1641C20.3032 18.1633 20.3139 18.1612 20.3241 18.1579C20.3343 18.1541 20.3441 18.1496 20.3532 18.1433C20.3622 18.1375 20.3705 18.1304 20.378 18.122C20.3854 18.1137 20.3917 18.1045 20.3972 18.0945C20.4023 18.0849 20.4063 18.0741 20.4094 18.0633C20.4122 18.0524 20.4134 18.0412 20.4137 18.0295C20.4137 18.0183 20.4126 18.007 20.4102 17.9957C20.4078 17.9849 20.4039 17.9741 20.3992 17.9641C19.1821 15.501 17.9072 12.9058 16.5744 10.1789C16.5335 10.0947 16.4796 10.0197 16.4124 9.9534C16.3825 9.92464 16.3577 9.92881 16.3389 9.96716Z" fill="#1A7A5E"/>
</g>
<mask id="mask1_564_10416" style="mask-type:luminance" maskUnits="userSpaceOnUse" x="20" y="22" width="13" height="12">
<path d="M20.2734 22.4951H32.7569V33.2527H20.2734V22.4951Z" fill="white"/>
</mask>
<g mask="url(#mask1_564_10416)">
<path d="M32.604 33.1891L20.412 29.0883C20.3667 29.0733 20.3542 29.0433 20.375 28.9983C20.4544 28.8249 20.5425 28.6635 20.6389 28.5143C22.1423 26.2013 23.998 24.4098 26.2066 23.1401C26.6057 22.9117 26.9828 22.7329 27.3383 22.6036C27.3596 22.5957 27.3816 22.5924 27.404 22.5928C27.4268 22.5932 27.4485 22.5982 27.4693 22.607C27.4901 22.6157 27.509 22.6282 27.5259 22.6441C27.5424 22.6599 27.5562 22.6787 27.5668 22.6999L32.6748 33.1003C32.7184 33.1907 32.6948 33.2203 32.604 33.1891Z" fill="#1A7A5E"/>
</g>
<path d="M7.53358 39.8493H7.59178V39.916H5.56888V39.8493H5.62708C5.7191 39.8493 5.78753 39.8193 5.83157 39.7593C5.87641 39.6984 5.89921 39.6409 5.89921 39.5875C5.89921 39.5334 5.8886 39.4792 5.86775 39.4258L5.5563 38.5988H4.07452L3.74419 39.4258C3.72295 39.4838 3.71272 39.5388 3.71272 39.5909C3.71272 39.6422 3.73553 39.6984 3.78194 39.7593C3.82913 39.8193 3.89873 39.8493 3.99115 39.8493H4.04148V39.916H2.68555V39.8493H2.74218C2.8397 39.8493 2.93644 39.8185 3.03318 39.7559C3.13071 39.6926 3.21133 39.5984 3.27543 39.4725L4.7399 35.9594C4.9381 35.5159 5.04349 35.2225 5.05608 35.0791H5.11271L6.9956 39.4592C7.05853 39.5892 7.13875 39.6872 7.23628 39.7526C7.3338 39.8172 7.4329 39.8493 7.53358 39.8493ZM4.18148 38.317H5.44933L4.83428 36.6647L4.18148 38.317Z" fill="#2F2F2F"/>
<path d="M10.8398 35.2139H12.1957V35.2806H12.1391C12.0416 35.2806 11.944 35.3122 11.8465 35.3756C11.7498 35.4381 11.6695 35.5319 11.6058 35.6574L10.1036 39.1704C9.90934 39.6139 9.80631 39.9074 9.79372 40.0508H9.73709L7.81644 35.664C7.75234 35.5386 7.67173 35.4435 7.5742 35.3789C7.47746 35.3135 7.37875 35.2806 7.2769 35.2806H7.22656V35.2139H9.24159V35.2806H9.19126C9.09884 35.2806 9.03002 35.3114 8.98519 35.3723C8.94115 35.4323 8.91913 35.489 8.91913 35.5423C8.91913 35.5957 8.92738 35.6499 8.94429 35.7041L10.0218 38.4785L11.1371 35.7041C11.1579 35.6453 11.1685 35.5903 11.1685 35.539C11.1685 35.4881 11.1465 35.4323 11.1025 35.3723C11.0584 35.3114 10.9896 35.2806 10.8964 35.2806H10.8398V35.2139Z" fill="#2F2F2F"/>
<path d="M16.682 39.8493H16.7402V39.916H14.7173V39.8493H14.7755C14.8675 39.8493 14.936 39.8193 14.98 39.7593C15.0248 39.6984 15.0477 39.6409 15.0477 39.5875C15.0477 39.5334 15.037 39.4792 15.0162 39.4258L14.7047 38.5988H13.223L12.8926 39.4258C12.8714 39.4838 12.8612 39.5388 12.8612 39.5909C12.8612 39.6422 12.884 39.6984 12.9304 39.7593C12.9776 39.8193 13.0472 39.8493 13.1396 39.8493H13.1899V39.916H11.834V39.8493H11.8906C11.9881 39.8493 12.0849 39.8185 12.1816 39.7559C12.2791 39.6926 12.3598 39.5984 12.4239 39.4725L13.8883 35.9594C14.0865 35.5159 14.1919 35.2225 14.2045 35.0791H14.2611L16.144 39.4592C16.207 39.5892 16.2872 39.6872 16.3847 39.7526C16.4822 39.8172 16.5813 39.8493 16.682 39.8493ZM13.3299 38.317H14.5978L13.9827 36.6647L13.3299 38.317Z" fill="#2F2F2F"/>
<path d="M19.1351 35.4894V39.4327C19.139 39.5494 19.1799 39.6486 19.2578 39.7294C19.3364 39.8095 19.4308 39.8495 19.5409 39.8495H19.6164L19.6227 39.9162H17.6958V39.8495H17.7792C17.8838 39.8495 17.975 39.8095 18.0529 39.7294C18.1315 39.6486 18.1756 39.5519 18.185 39.4393V35.4894H17.3293C17.1342 35.494 16.9793 35.559 16.8652 35.6845C16.752 35.8104 16.6954 35.9738 16.6954 36.1747V36.2547H16.6309V35.0859C16.8047 35.1626 17.0544 35.2035 17.3796 35.2077H19.9342C20.064 35.2077 20.2063 35.1943 20.3605 35.1676C20.5154 35.1401 20.6224 35.1126 20.6814 35.0859V36.2547H20.6184V36.1747C20.6184 35.8971 20.5186 35.6995 20.3196 35.5828C20.2272 35.5253 20.1155 35.494 19.9845 35.4894H19.1351Z" fill="#2F2F2F"/>
<path d="M25.4398 39.8493H25.498V39.916H23.4751V39.8493H23.5333C23.6254 39.8493 23.6938 39.8193 23.7378 39.7593C23.7827 39.6984 23.8055 39.6409 23.8055 39.5875C23.8055 39.5334 23.7948 39.4792 23.774 39.4258L23.4625 38.5988H21.9808L21.6504 39.4258C21.6292 39.4838 21.619 39.5388 21.619 39.5909C21.619 39.6422 21.6418 39.6984 21.6882 39.7593C21.7354 39.8193 21.805 39.8493 21.8974 39.8493H21.9477V39.916H20.5918V39.8493H20.6484C20.746 39.8493 20.8427 39.8185 20.9394 39.7559C21.037 39.6926 21.1176 39.5984 21.1817 39.4725L22.6462 35.9594C22.8444 35.5159 22.9497 35.2225 22.9623 35.0791H23.019L24.9019 39.4592C24.9648 39.5892 25.045 39.6872 25.1425 39.7526C25.2401 39.8172 25.3392 39.8493 25.4398 39.8493ZM22.0877 38.317H23.3556L22.7405 36.6647L22.0877 38.317Z" fill="#2F2F2F"/>
<path d="M27.3163 35.509H27.0441C27.0355 35.509 27.0292 35.509 27.0252 35.509V39.4255C27.0292 39.5422 27.0701 39.6423 27.1479 39.7256C27.2266 39.8082 27.321 39.849 27.4311 39.849H27.5129V39.9157H25.5859V39.849H25.6693C25.8211 39.849 25.9371 39.7798 26.0169 39.6406C26.0515 39.5773 26.0708 39.5081 26.0751 39.4322V35.7041C26.0708 35.5873 26.0295 35.4881 25.9509 35.4056C25.8722 35.3222 25.7782 35.2806 25.6693 35.2806H25.5859V35.2139H27.7598C28.1696 35.2139 28.5165 35.3081 28.7996 35.4956C28.9431 35.5903 29.0568 35.7216 29.1409 35.8891C29.2259 36.0571 29.2684 36.2768 29.2684 36.5477C29.2684 36.8178 29.1795 37.0788 29.0025 37.3297C28.8252 37.5798 28.5672 37.7232 28.2286 37.7599C28.474 37.8445 28.6895 38.0412 28.8751 38.3501C29.3313 39.125 29.6695 39.5864 29.8897 39.734C29.9998 39.8065 30.1371 39.8449 30.3018 39.849V39.9157H29.6805C29.3132 39.9157 29.008 39.8649 28.765 39.7623C28.5216 39.659 28.3301 39.4772 28.1908 39.2171C28.111 39.0696 27.936 38.6865 27.6655 38.0683C27.5467 37.7949 27.4032 37.6448 27.2345 37.6181V37.5515H27.4311C27.6206 37.5515 27.7886 37.491 27.9344 37.3697C28.08 37.2488 28.1783 37.0513 28.2286 36.7778C28.2463 36.6844 28.2553 36.6107 28.2553 36.5561C28.2553 36.1893 28.1853 35.9241 28.0461 35.7607C27.9065 35.5974 27.7268 35.5136 27.5066 35.509C27.4645 35.509 27.4012 35.509 27.3163 35.509Z" fill="#2F2F2F"/>
</g>
<defs>
<clipPath id="clip0_564_10416">
<rect width="33" height="40" fill="white"/>
</clipPath>
</defs>
</svg>
