<svg width="50" height="60" viewBox="0 0 50 60" fill="none" xmlns="http://www.w3.org/2000/svg">
<mask id="mask0_3361_46822" style="mask-type:luminance" maskUnits="userSpaceOnUse" x="0" y="0" width="50" height="50">
<path d="M0.210938 0.0585938H49.3271V49.7482H0.210938V0.0585938Z" fill="white"/>
</mask>
<g mask="url(#mask0_3361_46822)">
<path d="M24.7811 0.111269C24.796 0.0787563 24.821 0.0625 24.8562 0.0625C24.8907 0.0625 24.9158 0.0787563 24.9312 0.111269L38.5348 27.5546C38.5694 27.6253 38.6171 27.684 38.6784 27.7309C38.7398 27.7778 38.8077 27.8078 38.8828 27.8203C42.5085 28.4281 45.9352 29.5254 49.1628 31.1123C49.3362 31.1979 49.3267 31.2404 49.1348 31.2386C46.2742 31.2135 43.3039 31.3605 40.224 31.6806C38.7613 31.8325 37.3193 32.047 35.8983 32.3234C30.3921 33.3938 25.2113 35.0619 20.3564 37.3291C13.3881 40.5829 6.72897 44.9208 0.347542 49.6652C0.259953 49.7309 0.231353 49.7102 0.261741 49.602C0.326091 49.3613 0.414276 49.1331 0.525697 48.9162C1.33365 47.3618 2.13625 45.7818 2.93229 44.1743C10.195 29.5091 17.4779 14.8214 24.7811 0.111269ZM24.7573 14.9502C22.4067 19.6927 20.0871 24.3746 17.7997 28.9952C17.715 29.1665 17.6477 29.3484 17.5977 29.541C17.5881 29.5779 17.5965 29.6098 17.6233 29.6367C17.6501 29.6629 17.6811 29.6704 17.7156 29.6579C21.9074 28.1924 26.2254 27.3889 30.6704 27.2476C30.7008 27.2476 30.7264 27.247 30.7478 27.2457C30.7639 27.2445 30.78 27.2414 30.7955 27.2363C30.811 27.2307 30.8259 27.2238 30.8396 27.2145C30.8533 27.2057 30.8658 27.1951 30.8771 27.1826C30.8884 27.1701 30.898 27.1563 30.9063 27.1413C30.9141 27.1269 30.92 27.1107 30.9248 27.0944C30.929 27.0782 30.9307 27.0613 30.9313 27.0438C30.9313 27.0269 30.9296 27.01 30.926 26.9931C30.9224 26.9769 30.9164 26.9606 30.9093 26.9456C29.0652 23.251 27.1335 19.3582 25.1142 15.2679C25.0522 15.1416 24.9706 15.029 24.8687 14.9296C24.8234 14.8865 24.7859 14.8927 24.7573 14.9502Z" fill="#6B79F5"/>
</g>
<mask id="mask1_3361_46822" style="mask-type:luminance" maskUnits="userSpaceOnUse" x="30" y="33" width="20" height="17">
<path d="M30.7188 33.7422H49.6331V49.8786H30.7188V33.7422Z" fill="white"/>
</mask>
<g mask="url(#mask1_3361_46822)">
<path d="M49.403 49.7851L30.9302 43.6339C30.8617 43.6114 30.8426 43.5664 30.8742 43.4988C30.9945 43.2387 31.128 42.9968 31.274 42.7729C33.5519 39.3034 36.3636 36.6161 39.7099 34.7116C40.3146 34.369 40.8861 34.1008 41.4247 33.9069C41.4569 33.8951 41.4902 33.8901 41.5242 33.8907C41.5588 33.8913 41.5915 33.8988 41.6231 33.9119C41.6547 33.9251 41.6833 33.9438 41.7089 33.9676C41.7339 33.9913 41.7548 34.0195 41.7709 34.0514L49.5102 49.6519C49.5764 49.7876 49.5406 49.832 49.403 49.7851Z" fill="#6B79F5"/>
</g>
<path d="M11.4158 59.7725H11.504V59.8726H8.439V59.7725H8.52718C8.66661 59.7725 8.77029 59.7275 8.83702 59.6375C8.90495 59.5462 8.93951 59.4599 8.93951 59.3799C8.93951 59.2986 8.92342 59.2173 8.89184 59.1373L8.41993 57.8968H6.17481L5.67431 59.1373C5.64213 59.2242 5.62664 59.3067 5.62664 59.3849C5.62664 59.4618 5.6612 59.5462 5.73151 59.6375C5.80301 59.7275 5.90847 59.7725 6.0485 59.7725H6.12476V59.8726H4.07031V59.7725H4.15611C4.30388 59.7725 4.45046 59.7262 4.59703 59.6325C4.7448 59.5374 4.86695 59.3961 4.96407 59.2073L7.18297 53.9377C7.48328 53.2724 7.64296 52.8323 7.66203 52.6172H7.74783L10.6007 59.1873C10.696 59.3824 10.8176 59.5293 10.9654 59.6275C11.1131 59.7244 11.2633 59.7725 11.4158 59.7725ZM6.33688 57.4741H8.25787L7.32597 54.9956L6.33688 57.4741Z" fill="#1F1F1F"/>
<path d="M16.4277 52.8203H18.4821V52.9204H18.3963C18.2486 52.9204 18.1008 52.9679 17.953 53.0629C17.8065 53.1567 17.6849 53.2974 17.5884 53.4856L15.3123 58.7552C15.0179 59.4204 14.8618 59.8606 14.8428 60.0757H14.757L11.8469 53.4956C11.7498 53.3074 11.6276 53.1648 11.4798 53.0679C11.3333 52.9697 11.1837 52.9204 11.0294 52.9204H10.9531V52.8203H14.0062V52.9204H13.9299C13.7899 52.9204 13.6856 52.9666 13.6177 53.0579C13.551 53.1479 13.5176 53.233 13.5176 53.313C13.5176 53.393 13.5301 53.4743 13.5557 53.5556L15.1883 57.7172L16.8781 53.5556C16.9097 53.4674 16.9258 53.3849 16.9258 53.308C16.9258 53.2317 16.8924 53.1479 16.8257 53.0579C16.759 52.9666 16.6547 52.9204 16.5135 52.9204H16.4277V52.8203Z" fill="#1F1F1F"/>
<path d="M25.2752 59.7725H25.3634V59.8726H22.2984V59.7725H22.3866C22.526 59.7725 22.6297 59.7275 22.6964 59.6375C22.7643 59.5462 22.7989 59.4599 22.7989 59.3799C22.7989 59.2986 22.7828 59.2173 22.7512 59.1373L22.2793 57.8968H20.0342L19.5337 59.1373C19.5015 59.2242 19.486 59.3067 19.486 59.3849C19.486 59.4618 19.5206 59.5462 19.5909 59.6375C19.6624 59.7275 19.7678 59.7725 19.9079 59.7725H19.9841V59.8726H17.9297V59.7725H18.0155C18.1633 59.7725 18.3098 59.7262 18.4564 59.6325C18.6042 59.5374 18.7263 59.3961 18.8234 59.2073L21.0423 53.9377C21.3427 53.2724 21.5023 52.8323 21.5214 52.6172H21.6072L24.4601 59.1873C24.5554 59.3824 24.677 59.5293 24.8247 59.6275C24.9725 59.7244 25.1227 59.7725 25.2752 59.7725ZM20.1963 57.4741H22.1172L21.1853 54.9956L20.1963 57.4741Z" fill="#1F1F1F"/>
<path d="M28.9896 53.2341V59.149C28.9956 59.324 29.0575 59.4729 29.1755 59.5942C29.2947 59.7142 29.4377 59.7742 29.6045 59.7742H29.7189L29.7285 59.8743H26.8088V59.7742H26.9352C27.0937 59.7742 27.2319 59.7142 27.3499 59.5942C27.469 59.4729 27.5358 59.3278 27.5501 59.159V53.2341H26.2535C25.958 53.241 25.7232 53.3386 25.5504 53.5268C25.3788 53.7156 25.293 53.9607 25.293 54.2621V54.3821H25.1953V52.6289C25.4587 52.744 25.837 52.8052 26.3298 52.8115H30.2004C30.397 52.8115 30.6127 52.7915 30.8462 52.7515C31.081 52.7102 31.2431 52.6689 31.3325 52.6289V54.3821H31.2371V54.2621C31.2371 53.8456 31.0858 53.5493 30.7843 53.3742C30.6443 53.2879 30.475 53.241 30.2766 53.2341H28.9896Z" fill="#1F1F1F"/>
<path d="M38.5486 59.7725H38.6368V59.8726H35.5718V59.7725H35.66C35.7994 59.7725 35.9031 59.7275 35.9698 59.6375C36.0378 59.5462 36.0723 59.4599 36.0723 59.3799C36.0723 59.2986 36.0562 59.2173 36.0247 59.1373L35.5527 57.8968H33.3076L32.8071 59.1373C32.7749 59.2242 32.7595 59.3067 32.7595 59.3849C32.7595 59.4618 32.794 59.5462 32.8643 59.6375C32.9358 59.7275 33.0413 59.7725 33.1813 59.7725H33.2576V59.8726H31.2031V59.7725H31.2889C31.4367 59.7725 31.5833 59.7262 31.7298 59.6325C31.8776 59.5374 31.9998 59.3961 32.0969 59.2073L34.3158 53.9377C34.6161 53.2724 34.7758 52.8323 34.7948 52.6172H34.8806L37.7335 59.1873C37.8289 59.3824 37.9504 59.5293 38.0982 59.6275C38.2459 59.7244 38.3961 59.7725 38.5486 59.7725ZM33.4697 57.4741H35.3907L34.4588 54.9956L33.4697 57.4741Z" fill="#1F1F1F"/>
<path d="M41.3873 53.263H40.975C40.9619 53.263 40.9524 53.263 40.9464 53.263V59.1378C40.9524 59.3129 41.0143 59.4629 41.1323 59.588C41.2515 59.7118 41.3945 59.7731 41.5613 59.7731H41.6852V59.8731H38.7656V59.7731H38.8919C39.1219 59.7731 39.2977 59.6693 39.4187 59.4604C39.4711 59.3654 39.5003 59.2616 39.5068 59.1478V53.5556C39.5003 53.3805 39.4377 53.2317 39.3186 53.1079C39.1994 52.9829 39.057 52.9204 38.8919 52.9204H38.7656V52.8203H42.0594C42.6803 52.8203 43.2058 52.9616 43.6348 53.243C43.8523 53.3849 44.0245 53.5819 44.152 53.8332C44.2807 54.0852 44.3451 54.4147 44.3451 54.8211C44.3451 55.2263 44.2104 55.6177 43.9423 55.9941C43.6735 56.3692 43.2827 56.5843 42.7697 56.6393C43.1415 56.7662 43.468 57.0614 43.7492 57.5247C44.4404 58.687 44.9528 59.3792 45.2865 59.6005C45.4533 59.7093 45.6613 59.7668 45.9109 59.7731V59.8731H44.9695C44.413 59.8731 43.9506 59.7968 43.5824 59.643C43.2136 59.4879 42.9234 59.2153 42.7125 58.8252C42.5915 58.6038 42.3264 58.0292 41.9164 57.102C41.7365 56.6918 41.519 56.4668 41.2634 56.4267V56.3267H41.5613C41.8485 56.3267 42.1029 56.236 42.324 56.0541C42.5444 55.8728 42.6934 55.5764 42.7697 55.1662C42.7965 55.0262 42.8102 54.9155 42.8102 54.8336C42.8102 54.2834 42.7041 53.8857 42.4932 53.6406C42.2817 53.3955 42.0094 53.2699 41.6757 53.263C41.6119 53.263 41.516 53.263 41.3873 53.263Z" fill="#1F1F1F"/>
</svg>
