<svg width="125" height="144" viewBox="0 0 125 144" fill="none" xmlns="http://www.w3.org/2000/svg">
<path d="M61.7057 -0.00705273C56.8769 0.0580575 53.4034 0.974718 51.0915 2.64442L19.4503 19.3172L1.76126 43.0467C-1.9707 48.7252 0.580761 59.76 12.1635 52.7726L24.9118 36.2011C41.0437 22.4745 73.7294 29.04 58.0233 56.7069C50.3015 72.7286 53.8138 80.5941 63.6102 83.9646L68.1819 68.9589C76.0423 51.5771 90.5154 48.53 90.0256 34.4628L124.746 37.1889L124.663 0.865214L61.7057 -0.00705273ZM43.9525 33.3788C38.3148 33.2441 32.7582 35.5403 28.7178 38.8836L15.9371 55.455C19.386 58.2323 22.8955 56.765 26.3849 53.4505C30.454 55.5515 33.651 52.3646 36.2859 45.9659C37.3843 41.5985 38.9926 38.5306 43.9525 33.3788ZM17.9521 64.315C17.8225 64.3142 17.6605 64.3131 17.5307 64.3446C16.4598 64.5643 15.1885 65.6901 14.3288 68.2768C13.4367 70.8633 13.2177 74.556 13.9691 78.5145C14.7207 82.4405 16.3187 85.7889 18.1195 87.8748C19.8558 89.9279 21.4721 90.5219 22.5429 90.3022C23.646 90.1151 24.8851 88.9568 25.7446 86.4024C26.6367 83.816 26.8883 80.091 26.1367 76.165C25.3529 72.2063 23.7549 68.8579 21.9862 66.8046C20.4429 64.9797 19.0215 64.3221 17.9521 64.315ZM44.4876 99.1003C41.9275 99.1157 38.7142 99.9045 35.5609 101.407C31.9522 103.165 29.1167 105.609 27.5786 107.867C26.0407 110.093 25.8999 111.777 26.3793 112.785C26.8589 113.76 28.2784 114.709 30.9995 114.857C33.7203 115.037 37.3869 114.316 40.9956 112.558C44.6043 110.799 47.4396 108.388 48.9777 106.13C50.5155 103.904 50.6565 102.187 50.1769 101.212C49.6976 100.204 48.2778 99.2876 45.5568 99.1398C45.2005 99.1051 44.8765 99.1029 44.4876 99.1003ZM12.6555 129.868C11.1323 129.89 9.73741 130.108 8.50369 130.456C5.74397 131.248 4.14649 132.696 3.61661 134.41C3.05411 136.156 3.59119 138.233 5.42335 140.481C7.28812 142.697 10.4173 144.825 14.298 146.017C18.1463 147.209 21.9054 147.202 24.6977 146.378C27.4898 145.586 29.0873 144.139 29.6172 142.425C30.1473 140.678 29.6426 138.601 27.7781 136.353C25.9457 134.137 22.8165 132.01 18.9358 130.817C16.7367 130.155 14.5999 129.849 12.6555 129.868Z" fill="white"/>
</svg>
