<svg width="90" height="117" viewBox="0 0 90 117" fill="none" xmlns="http://www.w3.org/2000/svg">
<path d="M90 35.514C90 55.1278 69.8528 117 45 117C20.1472 117 0 55.1278 0 35.514C0 15.9002 20.1472 0 45 0C69.8528 0 90 15.9002 90 35.514Z" fill="#D9D9D9"/>
<circle cx="45" cy="45" r="35" fill="#A60000"/>
<path d="M44.6953 29.7344C49.1172 29.7344 52.3438 30.6406 54.375 32.4531C56.4062 34.2656 57.4219 36.8047 57.4219 40.0703C57.4219 41.5547 57.1875 42.9688 56.7188 44.3125C56.2656 45.6406 55.5156 46.8203 54.4688 47.8516C53.4219 48.8672 52.0391 49.6719 50.3203 50.2656C48.6172 50.8594 46.5156 51.1562 44.0156 51.1562H40.3594V64H34.7344V29.7344H44.6953ZM44.3203 34.3984H40.3594V46.4688H43.4297C45.1953 46.4688 46.6953 46.2656 47.9297 45.8594C49.1641 45.4375 50.1016 44.7734 50.7422 43.8672C51.3828 42.9609 51.7031 41.7656 51.7031 40.2812C51.7031 38.2969 51.1016 36.8203 49.8984 35.8516C48.7109 34.8828 46.8516 34.3984 44.3203 34.3984Z" fill="white"/>
</svg>
