<svg width="144" height="142" viewBox="0 0 144 142" fill="none" xmlns="http://www.w3.org/2000/svg">
<path d="M71.8125 0C71.9629 0 72.1734 2.53232e-07 72.3539 0.036094C73.7375 0.291758 75.3918 1.57008 76.4746 4.49066C77.6176 7.40824 77.8582 11.568 76.8656 16.0226C75.843 20.423 73.7375 24.2159 71.3914 26.5319C69.1055 28.8479 67.0301 29.4796 65.6465 29.2389C64.2027 29.0284 62.6086 27.705 61.5258 24.8175C60.3828 21.9179 60.082 17.701 61.1047 13.2825C62.1574 8.83094 64.2328 5.07418 66.5789 2.7732C68.5641 0.727891 70.3988 0 71.8125 0ZM37.1023 38.9542C40.4109 39.0444 44.5918 39.9167 48.6523 41.6311C53.3445 43.6764 56.9539 46.4136 58.9391 49.0003C60.9242 51.4968 61.1047 53.3917 60.473 54.5046C59.8113 55.6175 57.9766 56.6702 54.4574 56.8206C50.9383 57.0311 46.1859 56.1589 41.5238 54.1737C36.8617 52.1585 33.1922 49.3913 31.207 46.8647C29.2219 44.3682 29.0715 42.4132 29.7031 41.3003C30.3348 40.1573 32.1996 39.1647 35.7188 39.0444C36.2 38.9542 36.6211 38.9542 37.1023 38.9542ZM78.0988 66.8968C80.084 66.9268 81.8887 67.1675 83.5129 67.5885C87.0621 68.4909 89.1074 70.1151 89.7691 72.0702C90.5211 74.0253 89.7691 76.3714 87.423 78.8979C84.9566 81.3643 80.8961 83.7405 75.843 85.0639C70.8199 86.3874 65.9773 86.3573 62.368 85.3948C58.7285 84.4624 56.6832 82.8081 56.0215 80.8831C55.3297 78.928 56.0215 76.612 58.4578 74.0553C60.834 71.5889 64.8945 69.2128 69.9477 67.9194C72.8051 67.1674 75.6023 66.8667 78.0988 66.8968ZM29.7633 84.3721L48.3516 93.185C47.0883 93.2452 43.9301 93.3354 43.9301 93.3354L41.9449 95.9522L25.4922 87.38L29.7633 84.3721ZM46.1559 84.4022L63.4207 92.5835C61.7664 92.6737 57.8562 92.7339 56.2922 92.8241L41.3133 85.7257L46.1559 84.4022ZM18.3035 87.6507L39.5086 98.8999L35.1473 104.524L12.7391 91.1096L18.3035 87.6507ZM102.161 90.3878C103.072 90.386 103.98 90.4869 104.868 90.6885C126.374 95.6514 139.067 96.0725 142.827 96.0725H144V128.407C144 128.407 140.511 127.895 134.706 127.865C123.487 127.865 103.725 129.79 84.4754 141.039C83.4527 141.671 81.257 141.912 78.5199 141.912C71.2109 141.912 60.1121 140.167 57.5555 139.205C31.8086 129.549 0.828125 103.051 0.828125 103.051L10.6035 94.5085C10.6035 94.5085 34.6059 109.818 37.6437 111.292C65.0449 124.737 87.2426 116.345 87.2426 116.345C87.2426 116.345 51.1789 117.248 39.5988 108.134L46.3965 97.9073C46.3965 97.9073 71.3012 97.2155 80.1742 96.0424C84.8063 95.4409 94.8223 90.3878 102.161 90.3878Z" fill="white"/>
</svg>
