<svg width="69" height="44" viewBox="0 0 69 44" fill="none" xmlns="http://www.w3.org/2000/svg">
<path d="M11.7 43L0.9 24.16V19.72H4.5C5.94 19.72 7.2 19.52 8.28 19.12C9.4 18.68 10.32 18.06 11.04 17.26C11.8 16.46 12.32 15.5 12.6 14.38H0.9V9.94H12.54C12.3 8.9 11.88 7.98 11.28 7.18C10.72 6.38 9.96 5.76 9 5.32C8.08 4.84 6.96 4.6 5.64 4.6H0.9V0.159997H27.96V4.6H18.54C19.22 5.36 19.78 6.18 20.22 7.06C20.7 7.94 21.02 8.9 21.18 9.94H27.96V14.38H21.3C20.9 17.34 19.76 19.66 17.88 21.34C16 22.98 13.58 24.1 10.62 24.7L22.38 43H11.7ZM51.3759 43.72C47.9759 43.72 44.9759 42.8 42.3759 40.96C39.7759 39.08 37.7359 36.52 36.2559 33.28C34.7759 30 34.0359 26.24 34.0359 22C34.0359 17.76 34.7759 14.02 36.2559 10.78C37.7359 7.5 39.7559 4.94 42.3159 3.1C44.9159 1.22 47.9159 0.279999 51.3159 0.279999C54.7159 0.279999 57.7159 1.22 60.3159 3.1C62.9559 4.94 65.0159 7.5 66.4959 10.78C67.9759 14.02 68.7159 17.76 68.7159 22C68.7159 26.24 67.9759 30 66.4959 33.28C65.0159 36.52 62.9759 39.08 60.3759 40.96C57.7759 42.8 54.7759 43.72 51.3759 43.72ZM51.3759 36.28C53.1759 36.28 54.7759 35.68 56.1759 34.48C57.6159 33.24 58.7359 31.56 59.5359 29.44C60.3359 27.28 60.7359 24.8 60.7359 22C60.7359 19.2 60.3359 16.72 59.5359 14.56C58.7359 12.4 57.6159 10.72 56.1759 9.52C54.7759 8.28 53.1559 7.66 51.3159 7.66C49.5159 7.66 47.9159 8.28 46.5159 9.52C45.1159 10.72 44.0159 12.4 43.2159 14.56C42.4559 16.72 42.0759 19.2 42.0759 22C42.0759 24.8 42.4559 27.28 43.2159 29.44C44.0159 31.56 45.1159 33.24 46.5159 34.48C47.9559 35.68 49.5759 36.28 51.3759 36.28Z" fill="#B00020"/>
</svg>
