<svg width="24" height="25" viewBox="0 0 24 25" fill="none" xmlns="http://www.w3.org/2000/svg">
<path d="M9 10.5L12.258 12.944C12.4598 13.0954 12.7114 13.1649 12.9624 13.1385C13.2133 13.1122 13.445 12.992 13.611 12.802L20 5.5" stroke="#484848" stroke-width="1.5" stroke-linecap="round"/>
<path d="M21 12.5C21 14.3805 20.411 16.2138 19.3157 17.7424C18.2203 19.271 16.6736 20.4181 14.8929 21.0225C13.1122 21.627 11.1868 21.6585 9.3873 21.1126C7.58776 20.5667 6.00442 19.4708 4.85967 17.9788C3.71492 16.4869 3.06627 14.6738 3.00481 12.7943C2.94335 10.9148 3.47218 9.0632 4.51702 7.49965C5.56187 5.9361 7.07023 4.73912 8.83027 4.07681C10.5903 3.4145 12.5136 3.32014 14.33 3.80699" stroke="#484848" stroke-width="1.5" stroke-linecap="round"/>
</svg>
