<svg width="18" height="18" viewBox="0 0 18 18" fill="none" xmlns="http://www.w3.org/2000/svg">
<path d="M4.67021 8.25007H13.3305C13.977 8.25007 14.3205 7.48507 13.8907 7.00132L9.56096 2.13007C9.49073 2.0508 9.40447 1.98733 9.30789 1.94387C9.21132 1.9004 9.10662 1.87793 9.00071 1.87793C8.8948 1.87793 8.7901 1.9004 8.69352 1.94387C8.59694 1.98733 8.51069 2.0508 8.44046 2.13007L4.10921 7.00132C3.67946 7.48507 4.02296 8.25007 4.67021 8.25007ZM8.43971 15.8693C8.50994 15.9486 8.59619 16.0121 8.69277 16.0555C8.78935 16.099 8.89405 16.1215 8.99996 16.1215C9.10587 16.1215 9.21057 16.099 9.30714 16.0555C9.40372 16.0121 9.48998 15.9486 9.56021 15.8693L13.89 10.9981C14.3205 10.5151 13.977 9.75007 13.3297 9.75007H4.67021C4.02371 9.75007 3.68021 10.5151 4.10996 10.9988L8.43971 15.8693Z" fill="white"/>
</svg>
