<svg width="50" height="60" viewBox="0 0 50 60" fill="none" xmlns="http://www.w3.org/2000/svg">
<g clip-path="url(#clip0_725_12723)">
<mask id="mask0_725_12723" style="mask-type:luminance" maskUnits="userSpaceOnUse" x="0" y="0" width="50" height="50">
<path d="M0.210938 0.0585938H49.3271V49.7482H0.210938V0.0585938Z" fill="white"/>
</mask>
<g mask="url(#mask0_725_12723)">
<path d="M24.7811 0.112124C24.796 0.0796107 24.821 0.0633545 24.8562 0.0633545C24.8907 0.0633545 24.9158 0.0796107 24.9312 0.112124L38.5348 27.5555C38.5694 27.6261 38.6171 27.6849 38.6784 27.7318C38.7398 27.7787 38.8077 27.8087 38.8828 27.8212C42.5085 28.4289 45.9352 29.5262 49.1628 31.1131C49.3362 31.1988 49.3267 31.2413 49.1348 31.2394C46.2742 31.2144 43.3039 31.3613 40.224 31.6815C38.7613 31.8334 37.3193 32.0479 35.8983 32.3242C30.3921 33.3946 25.2113 35.0628 20.3564 37.3299C13.3881 40.5837 6.72897 44.9217 0.347542 49.6661C0.259953 49.7317 0.231353 49.7111 0.261741 49.6029C0.326091 49.3622 0.414276 49.134 0.525697 48.917C1.33365 47.3626 2.13625 45.7826 2.93229 44.1751C10.195 29.51 17.4779 14.8223 24.7811 0.112124ZM24.7573 14.9511C22.4067 19.6936 20.0871 24.3754 17.7997 28.996C17.715 29.1673 17.6477 29.3493 17.5977 29.5419C17.5881 29.5788 17.5965 29.6106 17.6233 29.6375C17.6501 29.6638 17.6811 29.6713 17.7156 29.6588C21.9074 28.1932 26.2254 27.3898 30.6704 27.2485C30.7008 27.2485 30.7264 27.2478 30.7478 27.2466C30.7639 27.2453 30.78 27.2422 30.7955 27.2372C30.811 27.2316 30.8259 27.2247 30.8396 27.2153C30.8533 27.2066 30.8658 27.1959 30.8771 27.1834C30.8884 27.1709 30.898 27.1572 30.9063 27.1422C30.9141 27.1278 30.92 27.1115 30.9248 27.0953C30.929 27.079 30.9307 27.0621 30.9313 27.0446C30.9313 27.0277 30.9296 27.0109 30.926 26.994C30.9224 26.9777 30.9164 26.9615 30.9093 26.9465C29.0652 23.2519 27.1335 19.3591 25.1142 15.2687C25.0522 15.1424 24.9706 15.0299 24.8687 14.9305C24.8234 14.8873 24.7859 14.8936 24.7573 14.9511Z" fill="#1E4D92"/>
</g>
<mask id="mask1_725_12723" style="mask-type:luminance" maskUnits="userSpaceOnUse" x="30" y="33" width="20" height="17">
<path d="M30.7188 33.7422H49.6331V49.8786H30.7188V33.7422Z" fill="white"/>
</mask>
<g mask="url(#mask1_725_12723)">
<path d="M49.403 49.7831L30.9302 43.6319C30.8617 43.6094 30.8426 43.5644 30.8742 43.4969C30.9945 43.2368 31.128 42.9948 31.274 42.771C33.5519 39.3015 36.3636 36.6142 39.7099 34.7097C40.3146 34.367 40.8861 34.0988 41.4247 33.905C41.4569 33.8931 41.4902 33.8881 41.5242 33.8887C41.5588 33.8893 41.5915 33.8969 41.6231 33.91C41.6547 33.9231 41.6833 33.9419 41.7089 33.9656C41.7339 33.9894 41.7548 34.0175 41.7709 34.0494L49.5102 49.6499C49.5764 49.7856 49.5406 49.83 49.403 49.7831Z" fill="#123456"/>
</g>
<path d="M11.4158 59.7745H11.504V59.8745H8.439V59.7745H8.52718C8.66661 59.7745 8.77029 59.7294 8.83702 59.6394C8.90495 59.5481 8.93951 59.4618 8.93951 59.3818C8.93951 59.3005 8.92342 59.2192 8.89184 59.1392L8.41993 57.8987H6.17481L5.67431 59.1392C5.64213 59.2261 5.62664 59.3087 5.62664 59.3868C5.62664 59.4637 5.6612 59.5481 5.73151 59.6394C5.80301 59.7294 5.90847 59.7745 6.0485 59.7745H6.12476V59.8745H4.07031V59.7745H4.15611C4.30388 59.7745 4.45046 59.7282 4.59703 59.6344C4.7448 59.5394 4.86695 59.3981 4.96407 59.2092L7.18297 53.9397C7.48328 53.2744 7.64296 52.8342 7.66203 52.6191H7.74783L10.6007 59.1892C10.696 59.3843 10.8176 59.5312 10.9654 59.6294C11.1131 59.7263 11.2633 59.7745 11.4158 59.7745ZM6.33688 57.4761H8.25787L7.32597 54.9976L6.33688 57.4761Z" fill="#2F2F2F"/>
<path d="M16.4238 52.8213H18.4782V52.9213H18.3924C18.2447 52.9213 18.0969 52.9688 17.9491 53.0639C17.8026 53.1577 17.681 53.2984 17.5845 53.4866L15.3084 58.7561C15.014 59.4214 14.8579 59.8616 14.8389 60.0767H14.7531L11.843 53.4966C11.7459 53.3084 11.6237 53.1658 11.4759 53.0689C11.3294 52.9707 11.1798 52.9213 11.0255 52.9213H10.9492V52.8213H14.0023V52.9213H13.926C13.786 52.9213 13.6817 52.9676 13.6138 53.0589C13.5471 53.1489 13.5137 53.234 13.5137 53.314C13.5137 53.394 13.5262 53.4753 13.5518 53.5566L15.1844 57.7182L16.8742 53.5566C16.9058 53.4684 16.9219 53.3859 16.9219 53.309C16.9219 53.2327 16.8885 53.1489 16.8218 53.0589C16.7551 52.9676 16.6508 52.9213 16.5096 52.9213H16.4238V52.8213Z" fill="#2F2F2F"/>
<path d="M25.2752 59.7745H25.3634V59.8745H22.2984V59.7745H22.3866C22.526 59.7745 22.6297 59.7294 22.6964 59.6394C22.7643 59.5481 22.7989 59.4618 22.7989 59.3818C22.7989 59.3005 22.7828 59.2192 22.7512 59.1392L22.2793 57.8987H20.0342L19.5337 59.1392C19.5015 59.2261 19.486 59.3087 19.486 59.3868C19.486 59.4637 19.5206 59.5481 19.5909 59.6394C19.6624 59.7294 19.7678 59.7745 19.9079 59.7745H19.9841V59.8745H17.9297V59.7745H18.0155C18.1633 59.7745 18.3098 59.7282 18.4564 59.6344C18.6042 59.5394 18.7263 59.3981 18.8234 59.2092L21.0423 53.9397C21.3427 53.2744 21.5023 52.8342 21.5214 52.6191H21.6072L24.4601 59.1892C24.5554 59.3843 24.677 59.5312 24.8247 59.6294C24.9725 59.7263 25.1227 59.7745 25.2752 59.7745ZM20.1963 57.4761H22.1172L21.1853 54.9976L20.1963 57.4761Z" fill="#2F2F2F"/>
<path d="M28.9935 53.2343V59.1491C28.9995 59.3242 29.0614 59.473 29.1794 59.5943C29.2986 59.7143 29.4416 59.7743 29.6084 59.7743H29.7228L29.7324 59.8744H26.8127V59.7743H26.9391C27.0976 59.7743 27.2358 59.7143 27.3538 59.5943C27.4729 59.473 27.5397 59.3279 27.554 59.1591V53.2343H26.2574C25.9619 53.2411 25.7271 53.3387 25.5543 53.5269C25.3827 53.7157 25.2969 53.9608 25.2969 54.2622V54.3822H25.1992V52.629C25.4626 52.7441 25.8409 52.8053 26.3337 52.8116H30.2043C30.4009 52.8116 30.6166 52.7916 30.8502 52.7516C31.0849 52.7103 31.247 52.669 31.3364 52.629V54.3822H31.241V54.2622C31.241 53.8458 31.0897 53.5494 30.7882 53.3743C30.6482 53.288 30.4789 53.2411 30.2805 53.2343H28.9935Z" fill="#2F2F2F"/>
<path d="M38.5447 59.7743H38.6329V59.8744H35.5679V59.7743H35.6561C35.7955 59.7743 35.8992 59.7293 35.9659 59.6393C36.0339 59.548 36.0684 59.4617 36.0684 59.3817C36.0684 59.3004 36.0523 59.2191 36.0207 59.1391L35.5488 57.8986H33.3037L32.8032 59.1391C32.771 59.226 32.7555 59.3085 32.7555 59.3867C32.7555 59.4636 32.7901 59.548 32.8604 59.6393C32.9319 59.7293 33.0374 59.7743 33.1774 59.7743H33.2537V59.8744H31.1992V59.7743H31.285C31.4328 59.7743 31.5794 59.7281 31.7259 59.6343C31.8737 59.5392 31.9959 59.3979 32.093 59.2091L34.3119 53.9395C34.6122 53.2743 34.7719 52.8341 34.7909 52.619H34.8767L37.7296 59.1891C37.8249 59.3842 37.9465 59.5311 38.0943 59.6293C38.242 59.7262 38.3922 59.7743 38.5447 59.7743ZM33.4658 57.4759H35.3868L34.4549 54.9975L33.4658 57.4759Z" fill="#2F2F2F"/>
<path d="M41.3873 53.264H40.975C40.9619 53.264 40.9524 53.264 40.9464 53.264V59.1388C40.9524 59.3139 41.0143 59.4639 41.1323 59.589C41.2515 59.7128 41.3945 59.774 41.5613 59.774H41.6852V59.8741H38.7656V59.774H38.8919C39.1219 59.774 39.2977 59.6702 39.4187 59.4614C39.4711 59.3664 39.5003 59.2626 39.5068 59.1488V53.5566C39.5003 53.3815 39.4377 53.2327 39.3186 53.1089C39.1994 52.9839 39.057 52.9213 38.8919 52.9213H38.7656V52.8213H42.0594C42.6803 52.8213 43.2058 52.9626 43.6348 53.244C43.8523 53.3859 44.0245 53.5828 44.152 53.8342C44.2807 54.0862 44.3451 54.4157 44.3451 54.8221C44.3451 55.2272 44.2104 55.6186 43.9423 55.995C43.6735 56.3702 43.2827 56.5853 42.7697 56.6403C43.1415 56.7672 43.468 57.0623 43.7492 57.5256C44.4404 58.688 44.9528 59.3801 45.2865 59.6015C45.4533 59.7103 45.6613 59.7678 45.9109 59.774V59.8741H44.9695C44.413 59.8741 43.9506 59.7978 43.5824 59.644C43.2136 59.4889 42.9234 59.2163 42.7125 58.8262C42.5915 58.6048 42.3264 58.0302 41.9164 57.103C41.7365 56.6928 41.519 56.4677 41.2634 56.4277V56.3277H41.5613C41.8485 56.3277 42.1029 56.237 42.324 56.0551C42.5444 55.8737 42.6934 55.5774 42.7697 55.1672C42.7965 55.0272 42.8102 54.9165 42.8102 54.8346C42.8102 54.2844 42.7041 53.8867 42.4932 53.6416C42.2817 53.3965 42.0094 53.2708 41.6757 53.264C41.6119 53.264 41.516 53.264 41.3873 53.264Z" fill="#2F2F2F"/>
</g>
<defs>
<clipPath id="clip0_725_12723">
<rect width="50" height="60" fill="white"/>
</clipPath>
</defs>
</svg>
