<svg width="41" height="40" viewBox="0 0 41 40" fill="none" xmlns="http://www.w3.org/2000/svg">
<g clip-path="url(#clip0_2616_69317)">
<path d="M34.5 0H6.5C3.18629 0 0.5 2.68629 0.5 6V34C0.5 37.3137 3.18629 40 6.5 40H34.5C37.8137 40 40.5 37.3137 40.5 34V6C40.5 2.68629 37.8137 0 34.5 0Z" fill="#37AEE2"/>
<path d="M16.0469 31.5625C15.1875 31.5625 15.2656 31.25 15.0312 30.4687L12.5312 22.2656L31.6719 11.0156" fill="#C8DAEA"/>
<path d="M16.0469 31.5625C16.5937 31.5625 16.9062 31.25 17.2969 30.9375L20.8125 27.5781L16.4375 24.9219" fill="#A9C9DD"/>
<path d="M16.4377 24.9264L26.9845 32.6607C28.0783 33.3639 29.0158 32.9732 29.3283 31.567L33.6252 11.4107C34.0158 9.69199 32.922 8.91074 31.7502 9.45762L6.67203 19.1451C5.03141 19.7701 5.03141 20.7857 6.35953 21.1764L12.8439 23.2076L27.6877 13.7545C28.3908 13.3639 29.0158 13.5201 28.547 14.067" fill="#F6FBFE"/>
</g>
<defs>
<clipPath id="clip0_2616_69317">
<rect x="0.5" width="40" height="40" rx="20" fill="white"/>
</clipPath>
</defs>
</svg>
