<svg width="24" height="25" viewBox="0 0 24 25" fill="none" xmlns="http://www.w3.org/2000/svg">
<path d="M22.2646 2.92778C21.9799 2.69091 21.6363 2.53567 21.2704 2.47858C20.9044 2.42149 20.5298 2.46469 20.1865 2.60357L2.2656 9.83892C1.88235 9.9966 1.55612 10.2671 1.3302 10.6145C1.10428 10.962 0.989366 11.3699 1.0007 11.7841C1.01204 12.1984 1.1491 12.5994 1.39368 12.934C1.63826 13.2685 1.9788 13.5208 2.3701 13.6573L5.9951 14.918L8.0156 21.5997C8.04306 21.6889 8.0829 21.7739 8.13398 21.852C8.14173 21.864 8.15266 21.873 8.1609 21.8846C8.2199 21.967 8.29121 22.0397 8.37233 22.1004C8.3954 22.118 8.41749 22.1345 8.44215 22.1501C8.53708 22.2131 8.64222 22.2591 8.75288 22.2862L8.76472 22.2872L8.77143 22.2901C8.83796 22.3036 8.90568 22.3105 8.97358 22.3106C8.98011 22.3106 8.98591 22.3074 8.99238 22.3073C9.09484 22.3055 9.19641 22.2879 9.29347 22.255C9.31605 22.2473 9.3354 22.2345 9.35731 22.2252C9.42969 22.1952 9.49826 22.1567 9.5616 22.1106C9.61232 22.0679 9.66306 22.0251 9.71382 21.9824L12.416 18.9991L16.4462 22.1211C16.8011 22.3974 17.2378 22.5475 17.6875 22.5479C18.1586 22.5473 18.6153 22.3847 18.9808 22.0874C19.3464 21.7901 19.5987 21.3762 19.6953 20.9151L22.958 4.89849C23.0319 4.53801 23.0065 4.16421 22.8843 3.81708C22.7622 3.46995 22.548 3.16255 22.2646 2.92778ZM9.3701 15.2364C9.23144 15.3745 9.13666 15.5505 9.09764 15.7422L8.78813 17.2462L8.00407 14.6532L12.0693 12.5362L9.3701 15.2364ZM17.6719 20.5401L12.9092 16.8506C12.7099 16.6966 12.4599 16.6234 12.2091 16.6455C11.9583 16.6675 11.7249 16.7833 11.5556 16.9697L10.6902 17.9249L10.9961 16.4385L18.0791 9.35549C18.2481 9.18665 18.3511 8.96285 18.3694 8.72461C18.3877 8.48638 18.3201 8.24947 18.1788 8.05681C18.0375 7.86414 17.8318 7.72845 17.5991 7.67433C17.3664 7.6202 17.122 7.65121 16.9101 7.76174L6.74485 13.0544L3.02049 11.6915L20.999 4.49905L17.6719 20.5401Z" fill="black"/>
</svg>
