<svg width="44" height="20" viewBox="0 0 44 20" fill="none" xmlns="http://www.w3.org/2000/svg">
<path d="M4.25924 14.6224H4.52962L4.2764 15.6739C4.23778 15.8284 4.24636 15.9486 4.29786 16.0258C4.34937 16.1031 4.44379 16.1417 4.58542 16.1417C4.72276 16.1417 4.83864 16.1031 4.92876 16.0258C5.01889 15.9486 5.07898 15.8284 5.11761 15.6739L5.37082 14.6224H5.6455L5.38799 15.6996C5.3322 15.9314 5.23349 16.1074 5.08756 16.2232C4.94593 16.3391 4.75709 16.3992 4.52533 16.3992C4.29357 16.3992 4.13477 16.3434 4.04894 16.2275C3.9631 16.1117 3.94593 15.9357 4.00173 15.7039L4.25924 14.6224ZM5.60688 16.352L6.03606 14.5537L6.85151 15.6095C6.87297 15.6395 6.89443 15.6696 6.91589 15.7039C6.93735 15.7383 6.95881 15.7769 6.98456 15.8198L7.27211 14.6224H7.52533L7.09615 16.4164L6.26353 15.3391L6.19915 15.249C6.17769 15.2147 6.16052 15.1846 6.14765 15.146L5.86009 16.3477H5.60688V16.352ZM7.50387 16.352L7.91589 14.6224H8.19057L7.77855 16.352H7.50387ZM8.16911 16.352L8.58113 14.6224H9.52104L9.46525 14.8627H8.80001L8.697 15.2919H9.36224L9.30216 15.5365H8.63692L8.44379 16.3477H8.16911V16.352ZM9.41374 16.352L9.82576 14.6224H10.1004L9.68842 16.352H9.41374ZM10.079 16.352L10.491 14.6224H11.4309L11.3751 14.8627H10.7099L10.6069 15.2962H11.2721L11.212 15.5408H10.5468L10.4137 16.0988H11.079L11.0189 16.352H10.079ZM11.3365 16.352L11.7485 14.6224H12.1176C12.3579 14.6224 12.5253 14.6353 12.6155 14.661C12.7056 14.6868 12.7828 14.7254 12.8429 14.7855C12.9202 14.8627 12.9717 14.9614 12.9931 15.0773C13.0146 15.1975 13.006 15.3348 12.9717 15.485C12.9331 15.6395 12.8773 15.7726 12.8 15.8928C12.7228 16.0129 12.624 16.1074 12.5082 16.1846C12.4223 16.2447 12.3279 16.2833 12.2249 16.3091C12.1262 16.3348 11.976 16.3477 11.7785 16.3477H11.3365V16.352ZM11.6713 16.0945H11.903C12.0275 16.0945 12.1262 16.0859 12.1949 16.0687C12.2635 16.0516 12.3236 16.0215 12.3794 15.9829C12.4567 15.9271 12.521 15.8584 12.5725 15.7726C12.624 15.691 12.6627 15.5923 12.6884 15.4807C12.7142 15.3692 12.7228 15.2747 12.7099 15.1932C12.697 15.1117 12.667 15.0387 12.6155 14.9829C12.5768 14.94 12.5296 14.9142 12.4652 14.8971C12.4009 14.8799 12.3022 14.8713 12.1605 14.8713H11.9631L11.6713 16.0945ZM14.2335 15.5752L14.0489 16.352H13.7914L14.2034 14.6224H14.6198C14.7442 14.6224 14.8301 14.631 14.8858 14.6438C14.9416 14.6567 14.9846 14.6782 15.0189 14.7125C15.0618 14.7511 15.0919 14.8069 15.1047 14.8756C15.1176 14.9443 15.1133 15.0172 15.0961 15.0988C15.0747 15.1803 15.0446 15.2576 14.9974 15.3262C14.9502 15.3949 14.8944 15.4507 14.8343 15.4893C14.7828 15.5194 14.727 15.5451 14.667 15.558C14.6069 15.5709 14.5125 15.5795 14.3923 15.5795H14.2335V15.5752ZM14.3064 15.3434H14.3751C14.5253 15.3434 14.6326 15.3262 14.6927 15.2919C14.7528 15.2576 14.7914 15.1975 14.8129 15.1117C14.8343 15.0215 14.8215 14.9529 14.7786 14.9185C14.7313 14.8799 14.6369 14.8627 14.4953 14.8627H14.4266L14.3064 15.3434ZM16.0275 16.352L15.9416 15.9056H15.2721L14.9717 16.352H14.6841L15.9288 14.5537L16.315 16.352H16.0275ZM15.4352 15.6696H15.903L15.8258 15.2747C15.8215 15.249 15.8172 15.2189 15.8172 15.1889C15.8129 15.1546 15.8129 15.1202 15.8129 15.0816C15.7957 15.1202 15.7786 15.1546 15.7571 15.1889C15.7399 15.2232 15.7228 15.2533 15.7056 15.279L15.4352 15.6696ZM16.7099 16.352L16.8987 15.5623L16.5554 14.6267H16.8429L17.0575 15.2147C17.0618 15.2318 17.0661 15.249 17.0747 15.2747C17.0833 15.3005 17.0876 15.3262 17.0961 15.352L17.1476 15.2747C17.1648 15.249 17.182 15.2275 17.1992 15.2061L17.7013 14.6267H17.976L17.1734 15.558L16.9846 16.3477H16.7099V16.352ZM19.3236 15.4979C19.3236 15.485 19.3279 15.4464 19.3365 15.3863C19.3408 15.3348 19.3451 15.2962 19.3494 15.2619C19.3322 15.3005 19.315 15.3391 19.2936 15.382C19.2721 15.4207 19.2464 15.4636 19.2163 15.5022L18.5554 16.425L18.3408 15.485C18.3322 15.4464 18.3236 15.4078 18.3193 15.3735C18.315 15.3391 18.3107 15.3005 18.3107 15.2662C18.3022 15.3005 18.2893 15.3391 18.2764 15.382C18.2635 15.4207 18.2464 15.4636 18.2249 15.5065L17.8386 16.3563H17.5854L18.4137 14.5537L18.6498 15.6438C18.6541 15.661 18.6584 15.691 18.6627 15.7297C18.667 15.7683 18.6755 15.8198 18.6841 15.8799C18.7142 15.8284 18.7528 15.7683 18.8043 15.691C18.8172 15.6696 18.8301 15.6567 18.8343 15.6438L19.5811 14.5537L19.5554 16.3563H19.3022L19.3236 15.4979ZM19.7786 16.352L20.1906 14.6224H21.1305L21.0747 14.8627H20.4095L20.3064 15.2962H20.9717L20.9116 15.5408H20.2464L20.1133 16.0988H20.7785L20.7185 16.352H19.7786ZM21.0318 16.352L21.461 14.5537L22.2764 15.6095C22.2979 15.6395 22.3193 15.6696 22.3408 15.7039C22.3622 15.7383 22.3837 15.7769 22.4095 15.8198L22.697 14.6224H22.9502L22.521 16.4164L21.6884 15.3391L21.624 15.249C21.6026 15.2147 21.5854 15.1846 21.5725 15.146L21.285 16.3477H21.0318V16.352ZM23.8258 14.8584L23.4695 16.3477H23.1949L23.5511 14.8584H23.1047L23.1605 14.6181H24.3279L24.2721 14.8584H23.8258ZM24.1133 16.0044L24.358 15.9014C24.3622 15.9786 24.3837 16.0387 24.4309 16.0773C24.4781 16.1159 24.5425 16.1374 24.6283 16.1374C24.7099 16.1374 24.7785 16.1159 24.8386 16.0687C24.8987 16.0215 24.9373 15.9614 24.9545 15.8842C24.9803 15.7812 24.9202 15.691 24.7743 15.6138C24.7528 15.6009 24.7399 15.5923 24.727 15.588C24.564 15.4936 24.461 15.4121 24.418 15.3348C24.3751 15.2576 24.3665 15.1674 24.3923 15.0601C24.4266 14.9185 24.4996 14.8069 24.6155 14.7168C24.7313 14.631 24.8601 14.5838 25.0146 14.5838C25.1391 14.5838 25.2378 14.6095 25.3107 14.6567C25.3837 14.7039 25.4223 14.7769 25.4352 14.867L25.1949 14.9786C25.1734 14.9228 25.1476 14.8842 25.1133 14.8584C25.079 14.8327 25.0361 14.8198 24.9846 14.8198C24.9116 14.8198 24.8472 14.8413 24.7957 14.8799C24.7442 14.9185 24.7099 14.97 24.6927 15.0387C24.667 15.1417 24.7399 15.2404 24.9073 15.3305C24.9202 15.3391 24.9288 15.3434 24.9373 15.3477C25.0833 15.425 25.182 15.5022 25.2249 15.5795C25.2678 15.6567 25.2764 15.7468 25.2507 15.8627C25.212 16.0258 25.1305 16.1546 25.006 16.2533C24.8816 16.3477 24.7356 16.3992 24.564 16.3992C24.4223 16.3992 24.3107 16.3649 24.2335 16.2962C24.1476 16.2275 24.109 16.1288 24.1133 16.0044ZM26.1348 16.352L26.5468 14.6224H26.8215L26.4095 16.352H26.1348ZM26.8043 16.352L27.2335 14.5537L28.0489 15.6095C28.0704 15.6395 28.0919 15.6696 28.1133 15.7039C28.1348 15.7383 28.1562 15.7769 28.182 15.8198L28.4695 14.6224H28.7228L28.2936 16.4164L27.461 15.3391L27.3966 15.249C27.3751 15.2147 27.358 15.1846 27.3451 15.146L27.0575 16.3477H26.8043V16.352ZM29.5983 14.8584L29.2421 16.3477H28.9674L29.3236 14.8584H28.8773L28.9331 14.6181H30.1004L30.0446 14.8584H29.5983ZM29.8944 16.352L30.3064 14.6224H31.2507L31.1949 14.8627H30.5296L30.4266 15.2962H31.0919L31.0318 15.5408H30.3665L30.2335 16.0988H30.8987L30.8386 16.352H29.8944ZM31.5897 15.5752L31.4052 16.3477H31.1476L31.5597 14.6181H31.9416C32.0532 14.6181 32.1391 14.6267 32.1949 14.6395C32.2549 14.6524 32.3022 14.6782 32.3365 14.7125C32.3794 14.7554 32.4052 14.8069 32.418 14.8756C32.4309 14.94 32.4266 15.0129 32.4095 15.0945C32.3751 15.2318 32.3193 15.3434 32.2335 15.4207C32.1477 15.4979 32.0404 15.5451 31.9116 15.5623L32.3022 16.3477H31.9931L31.6198 15.5752H31.5897ZM31.6584 15.3563H31.7099C31.8558 15.3563 31.9545 15.3391 32.0103 15.3048C32.0661 15.2704 32.1047 15.2104 32.1262 15.1202C32.1477 15.0258 32.1391 14.9571 32.0961 14.9185C32.0532 14.8799 31.9631 14.8584 31.8258 14.8584H31.7743L31.6584 15.3563ZM32.4695 16.352L32.8816 14.6224H33.8215L33.7657 14.8627H33.1004L32.9974 15.2919H33.6627L33.6026 15.5365H32.9373L32.7442 16.3477H32.4695V16.352ZM34.7356 16.352L34.6498 15.9056H33.9803L33.6798 16.352H33.3923L34.6369 14.5537L35.0232 16.352H34.7356ZM34.1391 15.6696H34.6069L34.5296 15.2747C34.5253 15.249 34.521 15.2189 34.521 15.1889C34.5167 15.1546 34.5167 15.1202 34.5167 15.0816C34.4996 15.1202 34.4824 15.1546 34.461 15.1889C34.4438 15.2232 34.4266 15.2533 34.4095 15.279L34.1391 15.6696ZM36.8086 15.043C36.7485 14.9743 36.6755 14.9228 36.5983 14.8928C36.521 14.8584 36.4352 14.8413 36.3365 14.8413C36.1519 14.8413 35.9889 14.9014 35.8429 15.0215C35.697 15.1417 35.6026 15.3005 35.5554 15.4936C35.5125 15.6782 35.5296 15.8327 35.6155 15.9571C35.697 16.0773 35.8258 16.1374 35.9974 16.1374C36.0961 16.1374 36.1949 16.1202 36.2936 16.0816C36.3923 16.0473 36.491 15.9915 36.594 15.9185L36.5168 16.2361C36.4309 16.2919 36.3408 16.3305 36.2464 16.3563C36.1519 16.382 36.0575 16.3949 35.9545 16.3949C35.8258 16.3949 35.7099 16.3735 35.6112 16.3305C35.5125 16.2876 35.4309 16.2232 35.3665 16.1374C35.3022 16.0559 35.2635 15.9571 35.2464 15.8456C35.2292 15.734 35.2335 15.6138 35.2678 15.485C35.2979 15.3563 35.3494 15.2404 35.418 15.1288C35.4867 15.0172 35.5768 14.9185 35.6798 14.837C35.7828 14.7511 35.8944 14.6868 36.0146 14.6438C36.1348 14.6009 36.2549 14.5795 36.3794 14.5795C36.4781 14.5795 36.5683 14.5923 36.6541 14.6224C36.7356 14.6524 36.8129 14.6953 36.8816 14.7554L36.8086 15.043ZM36.8343 16.352L37.2464 14.6224H38.1863L38.1305 14.8627H37.4652L37.3622 15.2962H38.0275L37.9674 15.5408H37.3022L37.1691 16.0988H37.8343L37.7743 16.352H36.8343Z" fill="#3D3D3C"/>
<path d="M31.8403 13.1161H29.9562L32.5742 3.66113H34.4583L31.8403 13.1161ZM30.8617 3.95727C30.733 3.77701 30.5313 3.68688 30.2566 3.68688H19.9046L19.3939 5.54096H28.8102L28.2609 7.5195H20.7287V7.51521H18.8446L17.2823 13.159H19.1664L20.2137 9.37358H28.6815C28.9476 9.37358 29.1965 9.28345 29.4283 9.10319C29.66 8.92294 29.8145 8.69976 29.8875 8.43366L30.9347 4.64826C31.0162 4.365 30.9905 4.13753 30.8617 3.95727ZM16.1836 12.5238C16.0806 12.8972 15.7373 13.159 15.351 13.159H5.63855C5.37246 13.159 5.17503 13.0689 5.04628 12.8886C4.91752 12.7083 4.88748 12.4852 4.96473 12.2191L7.33383 3.68688H9.21795L7.10207 11.3092H14.6386L16.7544 3.68688H18.6386L16.1836 12.5238Z" fill="#70706E"/>
<path d="M37.7133 3.67773L40.0953 8.41593L35.0867 13.1541L37.7133 3.67773Z" fill="#098041"/>
<path d="M36.0379 3.67773L38.4199 8.41593L33.407 13.1541L36.0379 3.67773Z" fill="#E97626"/>
</svg>
