<svg width="61" height="60" viewBox="0 0 61 60" fill="none" xmlns="http://www.w3.org/2000/svg">
<g clip-path="url(#clip0_1431_17465)">
<path d="M30.499 47.0156V62.0156M30.499 47.0156L35.499 52.0156M30.499 47.0156L25.499 52.0156" stroke="#F79E1B" stroke-width="1.5" stroke-linecap="round" stroke-linejoin="round"/>
<path d="M55.5 33.3825C55.5 39.24 51.89 44.265 46.75 46.4M36.4525 20.0675C37.984 19.5356 39.5938 19.2644 41.215 19.265C42.85 19.265 44.4225 19.5375 45.89 20.0375M45.89 20.0375C45.0925 12.985 39.04 7.5 31.69 7.5C23.8 7.5 17.405 13.82 17.405 21.6175C17.4042 23.2923 17.704 24.9536 18.29 26.5225M45.89 20.0375C48.0861 20.787 50.0659 22.0614 51.6575 23.75M18.29 26.5225C17.6062 26.3903 16.9114 26.3233 16.215 26.3225C10.2975 26.325 5.5 31.065 5.5 36.9125C5.5 41.6525 8.6525 45.665 13 47.015M18.29 26.5225C19.6731 26.7918 20.9897 27.3303 22.165 28.1075" stroke="#F79E1B" stroke-width="1.5" stroke-linecap="round"/>
</g>
<defs>
<clipPath id="clip0_1431_17465">
<rect width="60" height="60" fill="white" transform="translate(0.5)"/>
</clipPath>
</defs>
</svg>
