<svg width="40" height="40" viewBox="0 0 40 40" fill="none" xmlns="http://www.w3.org/2000/svg">
<rect x="11" y="11" width="18" height="18" rx="2" fill="#D00000"/>
<path d="M19.7875 20.4875L17.3375 22.9375C17.2458 23.0292 17.1292 23.075 16.9875 23.075C16.8458 23.075 16.7292 23.0292 16.6375 22.9375C16.5458 22.8458 16.5 22.7292 16.5 22.5875C16.5 22.4458 16.5458 22.3292 16.6375 22.2375L19.0875 19.7875L16.6375 17.3375C16.5458 17.2458 16.5 17.1292 16.5 16.9875C16.5 16.8458 16.5458 16.7292 16.6375 16.6375C16.7292 16.5458 16.8458 16.5 16.9875 16.5C17.1292 16.5 17.2458 16.5458 17.3375 16.6375L19.7875 19.0875L22.2375 16.6375C22.3292 16.5458 22.4458 16.5 22.5875 16.5C22.7292 16.5 22.8458 16.5458 22.9375 16.6375C23.0292 16.7292 23.075 16.8458 23.075 16.9875C23.075 17.1292 23.0292 17.2458 22.9375 17.3375L20.4875 19.7875L22.9375 22.2375C23.0292 22.3292 23.075 22.4458 23.075 22.5875C23.075 22.7292 23.0292 22.8458 22.9375 22.9375C22.8458 23.0292 22.7292 23.075 22.5875 23.075C22.4458 23.075 22.3292 23.0292 22.2375 22.9375L19.7875 20.4875Z" fill="white"/>
</svg>
