<svg width="33" height="12" viewBox="0 0 33 12" fill="none" xmlns="http://www.w3.org/2000/svg">
<path d="M11.6578 10.9391L13.3267 1.14553H15.9961L14.326 10.9391H11.6578ZM23.9703 1.35665C23.4416 1.15823 22.6128 0.945312 21.5779 0.945312C18.9401 0.945312 17.0822 2.27362 17.0663 4.17736C17.0514 5.58462 18.3928 6.36971 19.4053 6.83813C20.4445 7.31831 20.7937 7.62438 20.7887 8.05298C20.782 8.7095 19.9589 9.00927 19.1916 9.00927C18.1232 9.00927 17.5556 8.86084 16.6789 8.49533L16.3348 8.33969L15.9602 10.532C16.5837 10.8056 17.7367 11.0423 18.9338 11.0546C21.7399 11.0546 23.5616 9.74144 23.5823 7.70843C23.5923 6.59429 22.8811 5.74656 21.341 5.04751C20.4079 4.59445 19.8365 4.29213 19.8426 3.83336C19.8426 3.42628 20.3262 2.99098 21.3714 2.99098C22.2442 2.97742 22.8767 3.16778 23.3694 3.3662L23.6086 3.47921L23.9703 1.35665ZM30.8398 1.14538H28.7771C28.1381 1.14538 27.6598 1.31978 27.3793 1.95754L23.4148 10.9327H26.2179C26.2179 10.9327 26.6761 9.72593 26.7798 9.46093C27.0861 9.46093 29.8093 9.46514 30.1985 9.46514C30.2784 9.80803 30.5233 10.9327 30.5233 10.9327H33.0003L30.8398 1.14508V1.14538ZM27.567 7.46949C27.7879 6.90522 28.6306 4.73173 28.6306 4.73173C28.6149 4.75779 28.8498 4.1647 28.9845 3.79699L29.1649 4.64138C29.1649 4.64138 29.6761 6.97916 29.7829 7.46934H27.567V7.46949ZM9.39163 1.14538L6.77819 7.8242L6.49978 6.46697C6.0132 4.90238 4.49738 3.20726 2.80276 2.35862L5.19248 10.9235L8.01685 10.9204L12.2195 1.14528L9.39163 1.14523" fill="#0E4595"/>
<path d="M4.33863 1.14453H0.0341197L0 1.3483C3.34887 2.15896 5.56468 4.11803 6.48471 6.47223L5.54872 1.97165C5.38718 1.3515 4.91851 1.16639 4.33873 1.14478" fill="#F2AE14"/>
</svg>
