<svg width="41" height="40" viewBox="0 0 41 40" fill="none" xmlns="http://www.w3.org/2000/svg">
<g clip-path="url(#clip0_2616_69315)">
<path d="M34.6717 5.81282C30.9115 2.06655 25.9115 0.00228568 20.5843 0C9.60694 0 0.673547 8.89125 0.669152 19.8199C0.667873 23.3132 1.58468 26.7233 3.32728 29.7291L0.501953 40L11.0592 37.2439C13.968 38.8233 17.243 39.6555 20.5758 39.6568H20.5842H20.5843C31.56 39.6568 40.4947 30.764 40.4994 19.8359C40.5012 14.5394 38.4315 9.55935 34.6717 5.81282ZM20.5843 36.3092H20.5779C17.6072 36.3076 14.694 35.5136 12.1531 34.0124L11.5484 33.6555L5.28345 35.2909L6.9561 29.2117L6.56211 28.5885C4.90504 25.9653 4.03025 22.9339 4.03149 19.8211C4.03513 10.7376 11.4602 3.34778 20.5906 3.34778C25.012 3.34961 29.1676 5.06544 32.293 8.17922C35.4182 11.293 37.138 15.4323 37.1367 19.8345C37.1329 28.9183 29.7075 36.3092 20.5843 36.3092Z" fill="#E0E0E0"/>
<path d="M1.41504 38.8634L4.11131 29.0617C2.44788 26.1931 1.57312 22.9386 1.57417 19.6054C1.57853 9.17626 10.1039 0.691406 20.579 0.691406C25.663 0.693692 30.4347 2.66356 34.0224 6.2388C37.6108 9.814 39.5858 14.5662 39.5838 19.6202C39.5794 30.0497 31.0535 38.5353 20.5797 38.5353C20.579 38.5353 20.5803 38.5353 20.5797 38.5353H20.5713C17.3907 38.5343 14.2655 37.7394 11.4899 36.2333L1.41504 38.8634Z" fill="url(#paint0_linear_2616_69315)"/>
<path fill-rule="evenodd" clip-rule="evenodd" d="M15.6631 11.4045C15.2946 10.589 14.9067 10.5726 14.5562 10.5584C14.2695 10.5461 13.9412 10.5469 13.6135 10.5469C13.2856 10.5469 12.7526 10.6696 12.3019 11.1596C11.851 11.6497 10.5801 12.8344 10.5801 15.2438C10.5801 17.6534 12.3429 19.9817 12.5886 20.3087C12.8346 20.6353 15.9916 25.7378 20.9913 27.7008C25.1465 29.3321 25.9921 29.0076 26.894 28.926C27.7959 28.8443 29.8042 27.7416 30.2142 26.5979C30.6241 25.4546 30.6241 24.4745 30.5011 24.2696C30.3782 24.0656 30.0502 23.9431 29.5582 23.6982C29.0663 23.4533 26.648 22.2684 26.1971 22.1051C25.7461 21.9419 25.4181 21.8602 25.0902 22.3506C24.7622 22.8403 23.82 23.9431 23.5331 24.2696C23.2461 24.5969 22.9591 24.6377 22.4672 24.3928C21.9752 24.1472 20.391 23.6306 18.5116 21.9622C17.0493 20.6643 16.062 19.0613 15.775 18.571C15.4881 18.0812 15.7443 17.8159 15.9911 17.5717C16.2119 17.3523 16.483 17.0001 16.729 16.7141C16.9744 16.4281 17.0564 16.224 17.2204 15.8975C17.3844 15.5705 17.3024 15.2845 17.1794 15.0396C17.0564 14.7947 16.1005 12.3729 15.6631 11.4045Z" fill="white"/>
<path d="M34.5089 5.75393C30.7919 2.05066 25.8493 0.0101308 20.5833 0.0078125C9.73191 0.0078125 0.901071 8.79699 0.896709 19.6001C0.89543 23.0535 1.80171 26.4243 3.5243 29.3957L0.731445 39.5486L11.1675 36.8242C14.0429 38.3853 17.2803 39.2081 20.5749 39.2093H20.5832H20.5833C31.433 39.2093 40.2651 30.4186 40.2697 19.6159C40.2715 14.3803 38.2255 9.45745 34.5089 5.75393ZM20.5833 35.9002H20.5769C17.6403 35.8987 14.7606 35.1137 12.2488 33.6298L11.651 33.277L5.45804 34.8936L7.11147 28.8842L6.722 28.2682C5.08396 25.6751 4.2192 22.6784 4.22048 19.6015C4.22406 10.6222 11.5639 3.31722 20.5895 3.31722C24.9602 3.31902 29.068 5.01516 32.1576 8.09319C35.2469 11.1712 36.947 15.263 36.9457 19.6147C36.9418 28.5942 29.6017 35.9002 20.5833 35.9002Z" fill="white"/>
</g>
<defs>
<linearGradient id="paint0_linear_2616_69315" x1="20.4994" y1="38.8634" x2="20.4994" y2="0.69147" gradientUnits="userSpaceOnUse">
<stop stop-color="#20B038"/>
<stop offset="1" stop-color="#60D66A"/>
</linearGradient>
<clipPath id="clip0_2616_69315">
<rect width="40" height="40" fill="white" transform="translate(0.5)"/>
</clipPath>
</defs>
</svg>
