<svg width="24" height="25" viewBox="0 0 24 25" fill="none" xmlns="http://www.w3.org/2000/svg">
<path d="M16.6 14.4996C16.4 14.3996 15.1 13.7996 14.9 13.6996C14.7 13.5996 14.5 13.5996 14.3 13.7996C14.1 13.9996 13.7 14.5996 13.5 14.7996C13.4 14.9996 13.2 14.9996 13 14.8996C12.3 14.5996 11.6 14.1996 11 13.6996C10.5 13.1996 10 12.5996 9.6 11.9996C9.5 11.7996 9.6 11.5996 9.7 11.4996C9.8 11.3996 9.9 11.1996 10.1 11.0996C10.2 10.9996 10.3 10.7996 10.3 10.6996C10.4 10.5996 10.4 10.3996 10.3 10.2996C10.2 10.1996 9.7 8.99961 9.5 8.49961C9.4 7.79961 9.2 7.79961 9 7.79961H8.5C8.3 7.79961 8 7.99961 7.9 8.09961C7.3 8.69961 7 9.39961 7 10.1996C7.1 11.0996 7.4 11.9996 8 12.7996C9.1 14.3996 10.5 15.6996 12.2 16.4996C12.7 16.6996 13.1 16.8996 13.6 16.9996C14.1 17.1996 14.6 17.1996 15.2 17.0996C15.9 16.9996 16.5 16.4996 16.9 15.8996C17.1 15.4996 17.1 15.0996 17 14.6996L16.6 14.4996ZM19.1 5.39961C15.2 1.49961 8.9 1.49961 5 5.39961C1.8 8.59961 1.2 13.4996 3.4 17.3996L2 22.4996L7.3 21.0996C8.8 21.8996 10.4 22.2996 12 22.2996C17.5 22.2996 21.9 17.8996 21.9 12.3996C22 9.79961 20.9 7.29961 19.1 5.39961ZM16.4 19.3996C15.1 20.1996 13.6 20.6996 12 20.6996C10.5 20.6996 9.1 20.2996 7.8 19.5996L7.5 19.3996L4.4 20.1996L5.2 17.1996L5 16.8996C2.6 12.8996 3.8 7.89961 7.7 5.39961C11.6 2.89961 16.6 4.19961 19 7.99961C21.4 11.8996 20.3 16.9996 16.4 19.3996Z" fill="black"/>
</svg>
